<mxfile host="app.diagrams.net" modified="2024-05-07T02:39:21.383Z" agent="Mozilla/5.0 (X11; Linux x86_64; rv:125.0) Gecko/20100101 Firefox/125.0" etag="xNvDsizfg2zlFjA79-y5" version="24.3.1" type="github">
  <diagram name="Page-1" id="e56a1550-8fbb-45ad-956c-1786394a9013">
    <mxGraphModel dx="4734" dy="3098" grid="1" gridSize="10" guides="1" tooltips="1" connect="1" arrows="1" fold="1" page="1" pageScale="1" pageWidth="3300" pageHeight="2339" background="none" math="0" shadow="0">
      <root>
        <mxCell id="0" />
        <mxCell id="1" parent="0" />
        <mxCell id="NHdadTuBNZMEaG2oG-7Y-571" value="" style="edgeStyle=entityRelationEdgeStyle;fontSize=12;html=1;endArrow=ERzeroToMany;startArrow=ERmandOne;rounded=1;entryX=0;entryY=0.5;entryDx=0;entryDy=0;dashed=1;curved=0;horizontal=1;" parent="1" source="NHdadTuBNZMEaG2oG-7Y-589" target="NHdadTuBNZMEaG2oG-7Y-564" edge="1">
          <mxGeometry width="100" height="100" relative="1" as="geometry">
            <mxPoint x="210" y="-1620" as="sourcePoint" />
            <mxPoint x="310" y="-1720" as="targetPoint" />
            <Array as="points">
              <mxPoint x="260" y="-1610" />
              <mxPoint x="210" y="-1210" />
            </Array>
          </mxGeometry>
        </mxCell>
        <mxCell id="NHdadTuBNZMEaG2oG-7Y-431" value="orders" style="shape=table;startSize=30;container=1;collapsible=1;childLayout=tableLayout;fixedRows=1;rowLines=0;fontStyle=1;align=center;resizeLast=1;html=1;horizontal=1;" parent="1" vertex="1">
          <mxGeometry x="-1200" y="-960" width="360" height="180.00000000000182" as="geometry" />
        </mxCell>
        <mxCell id="NHdadTuBNZMEaG2oG-7Y-432" value="" style="shape=tableRow;horizontal=1;startSize=0;swimlaneHead=0;swimlaneBody=0;fillColor=none;collapsible=0;dropTarget=0;points=[[0,0.5],[1,0.5]];portConstraint=eastwest;top=0;left=0;right=0;bottom=1;" parent="NHdadTuBNZMEaG2oG-7Y-431" vertex="1">
          <mxGeometry y="30" width="360" height="30" as="geometry" />
        </mxCell>
        <mxCell id="NHdadTuBNZMEaG2oG-7Y-433" value="&lt;div&gt;PK&lt;br&gt;&lt;/div&gt;" style="shape=partialRectangle;connectable=0;fillColor=none;top=0;left=0;bottom=0;right=0;fontStyle=1;overflow=hidden;whiteSpace=wrap;html=1;horizontal=1;" parent="NHdadTuBNZMEaG2oG-7Y-432" vertex="1">
          <mxGeometry width="77.5" height="30" as="geometry">
            <mxRectangle width="77.5" height="30" as="alternateBounds" />
          </mxGeometry>
        </mxCell>
        <mxCell id="NHdadTuBNZMEaG2oG-7Y-434" value="&lt;div&gt;rd_id BIGINT AUTO_INCREMENT&lt;br&gt;&lt;/div&gt;" style="shape=partialRectangle;connectable=0;fillColor=none;top=0;left=0;bottom=0;right=0;align=left;spacingLeft=6;fontStyle=5;overflow=hidden;whiteSpace=wrap;html=1;horizontal=1;" parent="NHdadTuBNZMEaG2oG-7Y-432" vertex="1">
          <mxGeometry x="77.5" width="282.5" height="30" as="geometry">
            <mxRectangle width="282.5" height="30" as="alternateBounds" />
          </mxGeometry>
        </mxCell>
        <mxCell id="NHdadTuBNZMEaG2oG-7Y-435" value="" style="shape=tableRow;horizontal=1;startSize=0;swimlaneHead=0;swimlaneBody=0;fillColor=none;collapsible=0;dropTarget=0;points=[[0,0.5],[1,0.5]];portConstraint=eastwest;top=0;left=0;right=0;bottom=0;" parent="NHdadTuBNZMEaG2oG-7Y-431" vertex="1">
          <mxGeometry y="60" width="360" height="30" as="geometry" />
        </mxCell>
        <mxCell id="NHdadTuBNZMEaG2oG-7Y-436" value="&lt;div&gt;&lt;b&gt;PK, FK, IDX&lt;br&gt;&lt;/b&gt;&lt;/div&gt;" style="shape=partialRectangle;connectable=0;fillColor=none;top=0;left=0;bottom=0;right=0;editable=1;overflow=hidden;whiteSpace=wrap;html=1;horizontal=1;" parent="NHdadTuBNZMEaG2oG-7Y-435" vertex="1">
          <mxGeometry width="77.5" height="30" as="geometry">
            <mxRectangle width="77.5" height="30" as="alternateBounds" />
          </mxGeometry>
        </mxCell>
        <mxCell id="NHdadTuBNZMEaG2oG-7Y-437" value="rd_instance_id BIGINT UNSIGNED" style="shape=partialRectangle;connectable=0;fillColor=none;top=0;left=0;bottom=0;right=0;align=left;spacingLeft=6;overflow=hidden;whiteSpace=wrap;html=1;horizontal=1;" parent="NHdadTuBNZMEaG2oG-7Y-435" vertex="1">
          <mxGeometry x="77.5" width="282.5" height="30" as="geometry">
            <mxRectangle width="282.5" height="30" as="alternateBounds" />
          </mxGeometry>
        </mxCell>
        <mxCell id="NHdadTuBNZMEaG2oG-7Y-438" value="" style="shape=tableRow;horizontal=1;startSize=0;swimlaneHead=0;swimlaneBody=0;fillColor=none;collapsible=0;dropTarget=0;points=[[0,0.5],[1,0.5]];portConstraint=eastwest;top=0;left=0;right=0;bottom=0;" parent="NHdadTuBNZMEaG2oG-7Y-431" vertex="1">
          <mxGeometry y="90" width="360" height="30" as="geometry" />
        </mxCell>
        <mxCell id="NHdadTuBNZMEaG2oG-7Y-439" value="" style="shape=partialRectangle;connectable=0;fillColor=none;top=0;left=0;bottom=0;right=0;editable=1;overflow=hidden;whiteSpace=wrap;html=1;horizontal=1;" parent="NHdadTuBNZMEaG2oG-7Y-438" vertex="1">
          <mxGeometry width="77.5" height="30" as="geometry">
            <mxRectangle width="77.5" height="30" as="alternateBounds" />
          </mxGeometry>
        </mxCell>
        <mxCell id="NHdadTuBNZMEaG2oG-7Y-440" value="created_at DATETIME" style="shape=partialRectangle;connectable=0;fillColor=none;top=0;left=0;bottom=0;right=0;align=left;spacingLeft=6;overflow=hidden;whiteSpace=wrap;html=1;horizontal=1;" parent="NHdadTuBNZMEaG2oG-7Y-438" vertex="1">
          <mxGeometry x="77.5" width="282.5" height="30" as="geometry">
            <mxRectangle width="282.5" height="30" as="alternateBounds" />
          </mxGeometry>
        </mxCell>
        <mxCell id="NHdadTuBNZMEaG2oG-7Y-441" value="" style="shape=tableRow;horizontal=1;startSize=0;swimlaneHead=0;swimlaneBody=0;fillColor=none;collapsible=0;dropTarget=0;points=[[0,0.5],[1,0.5]];portConstraint=eastwest;top=0;left=0;right=0;bottom=0;" parent="NHdadTuBNZMEaG2oG-7Y-431" vertex="1">
          <mxGeometry y="120" width="360" height="30" as="geometry" />
        </mxCell>
        <mxCell id="NHdadTuBNZMEaG2oG-7Y-442" value="&lt;b&gt;FK, IDX&lt;/b&gt;" style="shape=partialRectangle;connectable=0;fillColor=none;top=0;left=0;bottom=0;right=0;editable=1;overflow=hidden;whiteSpace=wrap;html=1;horizontal=1;" parent="NHdadTuBNZMEaG2oG-7Y-441" vertex="1">
          <mxGeometry width="77.5" height="30" as="geometry">
            <mxRectangle width="77.5" height="30" as="alternateBounds" />
          </mxGeometry>
        </mxCell>
        <mxCell id="NHdadTuBNZMEaG2oG-7Y-443" value="rd_status_id SMALLINT" style="shape=partialRectangle;connectable=0;fillColor=none;top=0;left=0;bottom=0;right=0;align=left;spacingLeft=6;overflow=hidden;whiteSpace=wrap;html=1;horizontal=1;" parent="NHdadTuBNZMEaG2oG-7Y-441" vertex="1">
          <mxGeometry x="77.5" width="282.5" height="30" as="geometry">
            <mxRectangle width="282.5" height="30" as="alternateBounds" />
          </mxGeometry>
        </mxCell>
        <mxCell id="aKPzq5v0mVSlIckOXB41-1" value="" style="shape=tableRow;horizontal=1;startSize=0;swimlaneHead=0;swimlaneBody=0;fillColor=none;collapsible=0;dropTarget=0;points=[[0,0.5],[1,0.5]];portConstraint=eastwest;top=0;left=0;right=0;bottom=0;" parent="NHdadTuBNZMEaG2oG-7Y-431" vertex="1">
          <mxGeometry y="150" width="360" height="30" as="geometry" />
        </mxCell>
        <mxCell id="aKPzq5v0mVSlIckOXB41-2" value="&lt;div&gt;&lt;b&gt;FK, IDX&lt;br&gt;&lt;/b&gt;&lt;/div&gt;" style="shape=partialRectangle;connectable=0;fillColor=none;top=0;left=0;bottom=0;right=0;editable=1;overflow=hidden;whiteSpace=wrap;html=1;horizontal=1;" parent="aKPzq5v0mVSlIckOXB41-1" vertex="1">
          <mxGeometry width="77.5" height="30" as="geometry">
            <mxRectangle width="77.5" height="30" as="alternateBounds" />
          </mxGeometry>
        </mxCell>
        <mxCell id="aKPzq5v0mVSlIckOXB41-3" value="rd_booking_id INT" style="shape=partialRectangle;connectable=0;fillColor=none;top=0;left=0;bottom=0;right=0;align=left;spacingLeft=6;overflow=hidden;whiteSpace=wrap;html=1;horizontal=1;" parent="aKPzq5v0mVSlIckOXB41-1" vertex="1">
          <mxGeometry x="77.5" width="282.5" height="30" as="geometry">
            <mxRectangle width="282.5" height="30" as="alternateBounds" />
          </mxGeometry>
        </mxCell>
        <mxCell id="NHdadTuBNZMEaG2oG-7Y-453" value="order_statuses" style="shape=table;startSize=30;container=1;collapsible=1;childLayout=tableLayout;fixedRows=1;rowLines=0;fontStyle=1;align=center;resizeLast=1;html=1;horizontal=1;" parent="1" vertex="1">
          <mxGeometry x="-1640" y="-925" width="360" height="90" as="geometry" />
        </mxCell>
        <mxCell id="NHdadTuBNZMEaG2oG-7Y-454" value="" style="shape=tableRow;horizontal=1;startSize=0;swimlaneHead=0;swimlaneBody=0;fillColor=none;collapsible=0;dropTarget=0;points=[[0,0.5],[1,0.5]];portConstraint=eastwest;top=0;left=0;right=0;bottom=1;" parent="NHdadTuBNZMEaG2oG-7Y-453" vertex="1">
          <mxGeometry y="30" width="360" height="30" as="geometry" />
        </mxCell>
        <mxCell id="NHdadTuBNZMEaG2oG-7Y-455" value="PK" style="shape=partialRectangle;connectable=0;fillColor=none;top=0;left=0;bottom=0;right=0;fontStyle=1;overflow=hidden;whiteSpace=wrap;html=1;horizontal=1;" parent="NHdadTuBNZMEaG2oG-7Y-454" vertex="1">
          <mxGeometry width="37.5" height="30" as="geometry">
            <mxRectangle width="37.5" height="30" as="alternateBounds" />
          </mxGeometry>
        </mxCell>
        <mxCell id="NHdadTuBNZMEaG2oG-7Y-456" value="rdst_id SMALLINT AUTO_INCREMENT" style="shape=partialRectangle;connectable=0;fillColor=none;top=0;left=0;bottom=0;right=0;align=left;spacingLeft=6;fontStyle=5;overflow=hidden;whiteSpace=wrap;html=1;horizontal=1;" parent="NHdadTuBNZMEaG2oG-7Y-454" vertex="1">
          <mxGeometry x="37.5" width="322.5" height="30" as="geometry">
            <mxRectangle width="322.5" height="30" as="alternateBounds" />
          </mxGeometry>
        </mxCell>
        <mxCell id="NHdadTuBNZMEaG2oG-7Y-457" value="" style="shape=tableRow;horizontal=1;startSize=0;swimlaneHead=0;swimlaneBody=0;fillColor=none;collapsible=0;dropTarget=0;points=[[0,0.5],[1,0.5]];portConstraint=eastwest;top=0;left=0;right=0;bottom=0;" parent="NHdadTuBNZMEaG2oG-7Y-453" vertex="1">
          <mxGeometry y="60" width="360" height="30" as="geometry" />
        </mxCell>
        <mxCell id="NHdadTuBNZMEaG2oG-7Y-458" value="&lt;b&gt;UNQ&lt;/b&gt;" style="shape=partialRectangle;connectable=0;fillColor=none;top=0;left=0;bottom=0;right=0;editable=1;overflow=hidden;whiteSpace=wrap;html=1;horizontal=1;" parent="NHdadTuBNZMEaG2oG-7Y-457" vertex="1">
          <mxGeometry width="37.5" height="30" as="geometry">
            <mxRectangle width="37.5" height="30" as="alternateBounds" />
          </mxGeometry>
        </mxCell>
        <mxCell id="NHdadTuBNZMEaG2oG-7Y-459" value="rdst_name VARCHAR(255)" style="shape=partialRectangle;connectable=0;fillColor=none;top=0;left=0;bottom=0;right=0;align=left;spacingLeft=6;overflow=hidden;whiteSpace=wrap;html=1;horizontal=1;" parent="NHdadTuBNZMEaG2oG-7Y-457" vertex="1">
          <mxGeometry x="37.5" width="322.5" height="30" as="geometry">
            <mxRectangle width="322.5" height="30" as="alternateBounds" />
          </mxGeometry>
        </mxCell>
        <mxCell id="NHdadTuBNZMEaG2oG-7Y-461" value="" style="edgeStyle=entityRelationEdgeStyle;fontSize=12;html=1;endArrow=ERzeroToMany;startArrow=ERmandOne;rounded=1;entryX=0;entryY=0.5;entryDx=0;entryDy=0;exitX=1;exitY=0.5;exitDx=0;exitDy=0;curved=0;horizontal=1;" parent="1" source="NHdadTuBNZMEaG2oG-7Y-415" target="aKPzq5v0mVSlIckOXB41-1" edge="1">
          <mxGeometry width="100" height="100" relative="1" as="geometry">
            <mxPoint x="-1190" y="-939" as="sourcePoint" />
            <mxPoint x="-1290" y="-654" as="targetPoint" />
          </mxGeometry>
        </mxCell>
        <mxCell id="NHdadTuBNZMEaG2oG-7Y-471" value="" style="edgeStyle=entityRelationEdgeStyle;fontSize=12;html=1;endArrow=ERzeroToMany;startArrow=ERmandOne;rounded=1;exitX=1;exitY=0.5;exitDx=0;exitDy=0;entryX=0;entryY=0.5;entryDx=0;entryDy=0;curved=0;horizontal=1;" parent="1" source="NHdadTuBNZMEaG2oG-7Y-386" target="NHdadTuBNZMEaG2oG-7Y-567" edge="1">
          <mxGeometry width="100" height="100" relative="1" as="geometry">
            <mxPoint x="-1860" y="-1137" as="sourcePoint" />
            <mxPoint x="-1177.5" y="-1422" as="targetPoint" />
            <Array as="points">
              <mxPoint x="-1350" y="-1172" />
            </Array>
          </mxGeometry>
        </mxCell>
        <mxCell id="NHdadTuBNZMEaG2oG-7Y-548" value="instances" style="shape=table;startSize=30;container=1;collapsible=1;childLayout=tableLayout;fixedRows=1;rowLines=0;fontStyle=1;align=center;resizeLast=1;html=1;horizontal=1;" parent="1" vertex="1">
          <mxGeometry x="-1200" y="-1760" width="360" height="240" as="geometry" />
        </mxCell>
        <mxCell id="NHdadTuBNZMEaG2oG-7Y-549" value="" style="shape=tableRow;horizontal=1;startSize=0;swimlaneHead=0;swimlaneBody=0;fillColor=none;collapsible=0;dropTarget=0;points=[[0,0.5],[1,0.5]];portConstraint=eastwest;top=0;left=0;right=0;bottom=1;" parent="NHdadTuBNZMEaG2oG-7Y-548" vertex="1">
          <mxGeometry y="30" width="360" height="30" as="geometry" />
        </mxCell>
        <mxCell id="NHdadTuBNZMEaG2oG-7Y-550" value="PK" style="shape=partialRectangle;connectable=0;fillColor=none;top=0;left=0;bottom=0;right=0;fontStyle=1;overflow=hidden;whiteSpace=wrap;html=1;horizontal=1;" parent="NHdadTuBNZMEaG2oG-7Y-549" vertex="1">
          <mxGeometry width="47.5" height="30" as="geometry">
            <mxRectangle width="47.5" height="30" as="alternateBounds" />
          </mxGeometry>
        </mxCell>
        <mxCell id="NHdadTuBNZMEaG2oG-7Y-551" value="inst_id BIGINT UNSIGNED AUTO_INCREMENT" style="shape=partialRectangle;connectable=0;fillColor=none;top=0;left=0;bottom=0;right=0;align=left;spacingLeft=6;fontStyle=5;overflow=hidden;whiteSpace=wrap;html=1;horizontal=1;" parent="NHdadTuBNZMEaG2oG-7Y-549" vertex="1">
          <mxGeometry x="47.5" width="312.5" height="30" as="geometry">
            <mxRectangle width="312.5" height="30" as="alternateBounds" />
          </mxGeometry>
        </mxCell>
        <mxCell id="NHdadTuBNZMEaG2oG-7Y-552" value="" style="shape=tableRow;horizontal=1;startSize=0;swimlaneHead=0;swimlaneBody=0;fillColor=none;collapsible=0;dropTarget=0;points=[[0,0.5],[1,0.5]];portConstraint=eastwest;top=0;left=0;right=0;bottom=0;" parent="NHdadTuBNZMEaG2oG-7Y-548" vertex="1">
          <mxGeometry y="60" width="360" height="30" as="geometry" />
        </mxCell>
        <mxCell id="NHdadTuBNZMEaG2oG-7Y-553" value="&lt;b&gt;FK, IDX&lt;/b&gt;" style="shape=partialRectangle;connectable=0;fillColor=none;top=0;left=0;bottom=0;right=0;editable=1;overflow=hidden;whiteSpace=wrap;html=1;horizontal=1;" parent="NHdadTuBNZMEaG2oG-7Y-552" vertex="1">
          <mxGeometry width="47.5" height="30" as="geometry">
            <mxRectangle width="47.5" height="30" as="alternateBounds" />
          </mxGeometry>
        </mxCell>
        <mxCell id="NHdadTuBNZMEaG2oG-7Y-554" value="inst_model_id INT UNSIGNED DEFAULT NULL" style="shape=partialRectangle;connectable=0;fillColor=none;top=0;left=0;bottom=0;right=0;align=left;spacingLeft=6;overflow=hidden;whiteSpace=wrap;html=1;horizontal=1;" parent="NHdadTuBNZMEaG2oG-7Y-552" vertex="1">
          <mxGeometry x="47.5" width="312.5" height="30" as="geometry">
            <mxRectangle width="312.5" height="30" as="alternateBounds" />
          </mxGeometry>
        </mxCell>
        <mxCell id="NHdadTuBNZMEaG2oG-7Y-555" value="" style="shape=tableRow;horizontal=1;startSize=0;swimlaneHead=0;swimlaneBody=0;fillColor=none;collapsible=0;dropTarget=0;points=[[0,0.5],[1,0.5]];portConstraint=eastwest;top=0;left=0;right=0;bottom=0;" parent="NHdadTuBNZMEaG2oG-7Y-548" vertex="1">
          <mxGeometry y="90" width="360" height="30" as="geometry" />
        </mxCell>
        <mxCell id="NHdadTuBNZMEaG2oG-7Y-556" value="" style="shape=partialRectangle;connectable=0;fillColor=none;top=0;left=0;bottom=0;right=0;editable=1;overflow=hidden;whiteSpace=wrap;html=1;horizontal=1;" parent="NHdadTuBNZMEaG2oG-7Y-555" vertex="1">
          <mxGeometry width="47.5" height="30" as="geometry">
            <mxRectangle width="47.5" height="30" as="alternateBounds" />
          </mxGeometry>
        </mxCell>
        <mxCell id="NHdadTuBNZMEaG2oG-7Y-557" value="inst_description TEXT DEFAULT NULL" style="shape=partialRectangle;connectable=0;fillColor=none;top=0;left=0;bottom=0;right=0;align=left;spacingLeft=6;overflow=hidden;whiteSpace=wrap;html=1;horizontal=1;" parent="NHdadTuBNZMEaG2oG-7Y-555" vertex="1">
          <mxGeometry x="47.5" width="312.5" height="30" as="geometry">
            <mxRectangle width="312.5" height="30" as="alternateBounds" />
          </mxGeometry>
        </mxCell>
        <mxCell id="NHdadTuBNZMEaG2oG-7Y-558" value="" style="shape=tableRow;horizontal=1;startSize=0;swimlaneHead=0;swimlaneBody=0;fillColor=none;collapsible=0;dropTarget=0;points=[[0,0.5],[1,0.5]];portConstraint=eastwest;top=0;left=0;right=0;bottom=0;" parent="NHdadTuBNZMEaG2oG-7Y-548" vertex="1">
          <mxGeometry y="120" width="360" height="30" as="geometry" />
        </mxCell>
        <mxCell id="NHdadTuBNZMEaG2oG-7Y-559" value="" style="shape=partialRectangle;connectable=0;fillColor=none;top=0;left=0;bottom=0;right=0;editable=1;overflow=hidden;whiteSpace=wrap;html=1;horizontal=1;" parent="NHdadTuBNZMEaG2oG-7Y-558" vertex="1">
          <mxGeometry width="47.5" height="30" as="geometry">
            <mxRectangle width="47.5" height="30" as="alternateBounds" />
          </mxGeometry>
        </mxCell>
        <mxCell id="NHdadTuBNZMEaG2oG-7Y-560" value="inst_serial_number VARCHAR(50) DEFAULT NULL" style="shape=partialRectangle;connectable=0;fillColor=none;top=0;left=0;bottom=0;right=0;align=left;spacingLeft=6;overflow=hidden;whiteSpace=wrap;html=1;horizontal=1;" parent="NHdadTuBNZMEaG2oG-7Y-558" vertex="1">
          <mxGeometry x="47.5" width="312.5" height="30" as="geometry">
            <mxRectangle width="312.5" height="30" as="alternateBounds" />
          </mxGeometry>
        </mxCell>
        <mxCell id="NHdadTuBNZMEaG2oG-7Y-561" value="" style="shape=tableRow;horizontal=1;startSize=0;swimlaneHead=0;swimlaneBody=0;fillColor=none;collapsible=0;dropTarget=0;points=[[0,0.5],[1,0.5]];portConstraint=eastwest;top=0;left=0;right=0;bottom=0;" parent="NHdadTuBNZMEaG2oG-7Y-548" vertex="1">
          <mxGeometry y="150" width="360" height="30" as="geometry" />
        </mxCell>
        <mxCell id="NHdadTuBNZMEaG2oG-7Y-562" value="" style="shape=partialRectangle;connectable=0;fillColor=none;top=0;left=0;bottom=0;right=0;editable=1;overflow=hidden;whiteSpace=wrap;html=1;horizontal=1;" parent="NHdadTuBNZMEaG2oG-7Y-561" vertex="1">
          <mxGeometry width="47.5" height="30" as="geometry">
            <mxRectangle width="47.5" height="30" as="alternateBounds" />
          </mxGeometry>
        </mxCell>
        <mxCell id="NHdadTuBNZMEaG2oG-7Y-563" value="inst_price DECIMAL(10, 2) DEFAULT NULL" style="shape=partialRectangle;connectable=0;fillColor=none;top=0;left=0;bottom=0;right=0;align=left;spacingLeft=6;overflow=hidden;whiteSpace=wrap;html=1;horizontal=1;" parent="NHdadTuBNZMEaG2oG-7Y-561" vertex="1">
          <mxGeometry x="47.5" width="312.5" height="30" as="geometry">
            <mxRectangle width="312.5" height="30" as="alternateBounds" />
          </mxGeometry>
        </mxCell>
        <mxCell id="NHdadTuBNZMEaG2oG-7Y-564" value="" style="shape=tableRow;horizontal=1;startSize=0;swimlaneHead=0;swimlaneBody=0;fillColor=none;collapsible=0;dropTarget=0;points=[[0,0.5],[1,0.5]];portConstraint=eastwest;top=0;left=0;right=0;bottom=0;" parent="NHdadTuBNZMEaG2oG-7Y-548" vertex="1">
          <mxGeometry y="180" width="360" height="30" as="geometry" />
        </mxCell>
        <mxCell id="NHdadTuBNZMEaG2oG-7Y-565" value="&lt;div&gt;&lt;b&gt;FK, IDX&lt;/b&gt;&lt;/div&gt;" style="shape=partialRectangle;connectable=0;fillColor=none;top=0;left=0;bottom=0;right=0;editable=1;overflow=hidden;whiteSpace=wrap;html=1;horizontal=1;" parent="NHdadTuBNZMEaG2oG-7Y-564" vertex="1">
          <mxGeometry width="47.5" height="30" as="geometry">
            <mxRectangle width="47.5" height="30" as="alternateBounds" />
          </mxGeometry>
        </mxCell>
        <mxCell id="NHdadTuBNZMEaG2oG-7Y-566" value="inst_manufacturer_id INT DEFAULT NULL" style="shape=partialRectangle;connectable=0;fillColor=none;top=0;left=0;bottom=0;right=0;align=left;spacingLeft=6;overflow=hidden;whiteSpace=wrap;html=1;horizontal=1;" parent="NHdadTuBNZMEaG2oG-7Y-564" vertex="1">
          <mxGeometry x="47.5" width="312.5" height="30" as="geometry">
            <mxRectangle width="312.5" height="30" as="alternateBounds" />
          </mxGeometry>
        </mxCell>
        <mxCell id="NHdadTuBNZMEaG2oG-7Y-567" value="" style="shape=tableRow;horizontal=1;startSize=0;swimlaneHead=0;swimlaneBody=0;fillColor=none;collapsible=0;dropTarget=0;points=[[0,0.5],[1,0.5]];portConstraint=eastwest;top=0;left=0;right=0;bottom=0;" parent="NHdadTuBNZMEaG2oG-7Y-548" vertex="1">
          <mxGeometry y="210" width="360" height="30" as="geometry" />
        </mxCell>
        <mxCell id="NHdadTuBNZMEaG2oG-7Y-568" value="&lt;div&gt;&lt;b&gt;FK, IDX&lt;/b&gt;&lt;/div&gt;" style="shape=partialRectangle;connectable=0;fillColor=none;top=0;left=0;bottom=0;right=0;editable=1;overflow=hidden;whiteSpace=wrap;html=1;horizontal=1;" parent="NHdadTuBNZMEaG2oG-7Y-567" vertex="1">
          <mxGeometry width="47.5" height="30" as="geometry">
            <mxRectangle width="47.5" height="30" as="alternateBounds" />
          </mxGeometry>
        </mxCell>
        <mxCell id="NHdadTuBNZMEaG2oG-7Y-569" value="inst_created_by INT UNSIGNED" style="shape=partialRectangle;connectable=0;fillColor=none;top=0;left=0;bottom=0;right=0;align=left;spacingLeft=6;overflow=hidden;whiteSpace=wrap;html=1;horizontal=1;" parent="NHdadTuBNZMEaG2oG-7Y-567" vertex="1">
          <mxGeometry x="47.5" width="312.5" height="30" as="geometry">
            <mxRectangle width="312.5" height="30" as="alternateBounds" />
          </mxGeometry>
        </mxCell>
        <mxCell id="NHdadTuBNZMEaG2oG-7Y-460" value="" style="edgeStyle=entityRelationEdgeStyle;fontSize=12;html=1;endArrow=ERzeroToMany;startArrow=ERmandOne;rounded=1;exitX=1;exitY=0.5;exitDx=0;exitDy=0;curved=0;horizontal=1;" parent="1" source="NHdadTuBNZMEaG2oG-7Y-454" target="NHdadTuBNZMEaG2oG-7Y-441" edge="1">
          <mxGeometry width="100" height="100" relative="1" as="geometry">
            <mxPoint x="-980" y="-189" as="sourcePoint" />
            <mxPoint x="-880" y="-289" as="targetPoint" />
          </mxGeometry>
        </mxCell>
        <mxCell id="NHdadTuBNZMEaG2oG-7Y-444" value="" style="edgeStyle=entityRelationEdgeStyle;fontSize=12;html=1;endArrow=ERzeroToMany;startArrow=ERmandOne;rounded=1;exitX=1;exitY=0.5;exitDx=0;exitDy=0;entryX=1;entryY=0.5;entryDx=0;entryDy=0;curved=0;horizontal=1;" parent="1" source="NHdadTuBNZMEaG2oG-7Y-435" target="NHdadTuBNZMEaG2oG-7Y-549" edge="1">
          <mxGeometry width="100" height="100" relative="1" as="geometry">
            <mxPoint x="-1220" y="-1170" as="sourcePoint" />
            <mxPoint x="-1110" y="-1300" as="targetPoint" />
            <Array as="points">
              <mxPoint x="-1170" y="-1370" />
              <mxPoint x="-750" y="-1130" />
            </Array>
          </mxGeometry>
        </mxCell>
        <mxCell id="NHdadTuBNZMEaG2oG-7Y-385" value="users" style="shape=table;startSize=30;container=1;collapsible=1;childLayout=tableLayout;fixedRows=1;rowLines=0;fontStyle=1;align=center;resizeLast=1;html=1;horizontal=1;" parent="1" vertex="1">
          <mxGeometry x="-2120" y="-1380" width="360" height="180" as="geometry" />
        </mxCell>
        <mxCell id="NHdadTuBNZMEaG2oG-7Y-386" value="" style="shape=tableRow;horizontal=1;startSize=0;swimlaneHead=0;swimlaneBody=0;fillColor=none;collapsible=0;dropTarget=0;points=[[0,0.5],[1,0.5]];portConstraint=eastwest;top=0;left=0;right=0;bottom=1;" parent="NHdadTuBNZMEaG2oG-7Y-385" vertex="1">
          <mxGeometry y="30" width="360" height="30" as="geometry" />
        </mxCell>
        <mxCell id="NHdadTuBNZMEaG2oG-7Y-387" value="PK" style="shape=partialRectangle;connectable=0;fillColor=none;top=0;left=0;bottom=0;right=0;fontStyle=1;overflow=hidden;whiteSpace=wrap;html=1;horizontal=1;" parent="NHdadTuBNZMEaG2oG-7Y-386" vertex="1">
          <mxGeometry width="40" height="30" as="geometry">
            <mxRectangle width="40" height="30" as="alternateBounds" />
          </mxGeometry>
        </mxCell>
        <mxCell id="NHdadTuBNZMEaG2oG-7Y-388" value="usr_id INT UNSIGNED AUTO_INCREMENT" style="shape=partialRectangle;connectable=0;fillColor=none;top=0;left=0;bottom=0;right=0;align=left;spacingLeft=6;fontStyle=5;overflow=hidden;whiteSpace=wrap;html=1;horizontal=1;" parent="NHdadTuBNZMEaG2oG-7Y-386" vertex="1">
          <mxGeometry x="40" width="320" height="30" as="geometry">
            <mxRectangle width="320" height="30" as="alternateBounds" />
          </mxGeometry>
        </mxCell>
        <mxCell id="NHdadTuBNZMEaG2oG-7Y-389" value="" style="shape=tableRow;horizontal=1;startSize=0;swimlaneHead=0;swimlaneBody=0;fillColor=none;collapsible=0;dropTarget=0;points=[[0,0.5],[1,0.5]];portConstraint=eastwest;top=0;left=0;right=0;bottom=0;" parent="NHdadTuBNZMEaG2oG-7Y-385" vertex="1">
          <mxGeometry y="60" width="360" height="30" as="geometry" />
        </mxCell>
        <mxCell id="NHdadTuBNZMEaG2oG-7Y-390" value="&lt;b&gt;UNQ&lt;/b&gt;" style="shape=partialRectangle;connectable=0;fillColor=none;top=0;left=0;bottom=0;right=0;editable=1;overflow=hidden;whiteSpace=wrap;html=1;horizontal=1;" parent="NHdadTuBNZMEaG2oG-7Y-389" vertex="1">
          <mxGeometry width="40" height="30" as="geometry">
            <mxRectangle width="40" height="30" as="alternateBounds" />
          </mxGeometry>
        </mxCell>
        <mxCell id="NHdadTuBNZMEaG2oG-7Y-391" value="usr_email VARCHAR(180) " style="shape=partialRectangle;connectable=0;fillColor=none;top=0;left=0;bottom=0;right=0;align=left;spacingLeft=6;overflow=hidden;whiteSpace=wrap;html=1;horizontal=1;" parent="NHdadTuBNZMEaG2oG-7Y-389" vertex="1">
          <mxGeometry x="40" width="320" height="30" as="geometry">
            <mxRectangle width="320" height="30" as="alternateBounds" />
          </mxGeometry>
        </mxCell>
        <mxCell id="NHdadTuBNZMEaG2oG-7Y-392" value="" style="shape=tableRow;horizontal=1;startSize=0;swimlaneHead=0;swimlaneBody=0;fillColor=none;collapsible=0;dropTarget=0;points=[[0,0.5],[1,0.5]];portConstraint=eastwest;top=0;left=0;right=0;bottom=0;" parent="NHdadTuBNZMEaG2oG-7Y-385" vertex="1">
          <mxGeometry y="90" width="360" height="30" as="geometry" />
        </mxCell>
        <mxCell id="NHdadTuBNZMEaG2oG-7Y-393" value="" style="shape=partialRectangle;connectable=0;fillColor=none;top=0;left=0;bottom=0;right=0;editable=1;overflow=hidden;whiteSpace=wrap;html=1;horizontal=1;" parent="NHdadTuBNZMEaG2oG-7Y-392" vertex="1">
          <mxGeometry width="40" height="30" as="geometry">
            <mxRectangle width="40" height="30" as="alternateBounds" />
          </mxGeometry>
        </mxCell>
        <mxCell id="NHdadTuBNZMEaG2oG-7Y-394" value="usr_roles JSON " style="shape=partialRectangle;connectable=0;fillColor=none;top=0;left=0;bottom=0;right=0;align=left;spacingLeft=6;overflow=hidden;whiteSpace=wrap;html=1;horizontal=1;" parent="NHdadTuBNZMEaG2oG-7Y-392" vertex="1">
          <mxGeometry x="40" width="320" height="30" as="geometry">
            <mxRectangle width="320" height="30" as="alternateBounds" />
          </mxGeometry>
        </mxCell>
        <mxCell id="NHdadTuBNZMEaG2oG-7Y-395" value="" style="shape=tableRow;horizontal=1;startSize=0;swimlaneHead=0;swimlaneBody=0;fillColor=none;collapsible=0;dropTarget=0;points=[[0,0.5],[1,0.5]];portConstraint=eastwest;top=0;left=0;right=0;bottom=0;" parent="NHdadTuBNZMEaG2oG-7Y-385" vertex="1">
          <mxGeometry y="120" width="360" height="30" as="geometry" />
        </mxCell>
        <mxCell id="NHdadTuBNZMEaG2oG-7Y-396" value="" style="shape=partialRectangle;connectable=0;fillColor=none;top=0;left=0;bottom=0;right=0;editable=1;overflow=hidden;whiteSpace=wrap;html=1;horizontal=1;" parent="NHdadTuBNZMEaG2oG-7Y-395" vertex="1">
          <mxGeometry width="40" height="30" as="geometry">
            <mxRectangle width="40" height="30" as="alternateBounds" />
          </mxGeometry>
        </mxCell>
        <mxCell id="NHdadTuBNZMEaG2oG-7Y-397" value="usr_password VARCHAR(255) " style="shape=partialRectangle;connectable=0;fillColor=none;top=0;left=0;bottom=0;right=0;align=left;spacingLeft=6;overflow=hidden;whiteSpace=wrap;html=1;horizontal=1;" parent="NHdadTuBNZMEaG2oG-7Y-395" vertex="1">
          <mxGeometry x="40" width="320" height="30" as="geometry">
            <mxRectangle width="320" height="30" as="alternateBounds" />
          </mxGeometry>
        </mxCell>
        <mxCell id="NHdadTuBNZMEaG2oG-7Y-398" value="" style="shape=tableRow;horizontal=1;startSize=0;swimlaneHead=0;swimlaneBody=0;fillColor=none;collapsible=0;dropTarget=0;points=[[0,0.5],[1,0.5]];portConstraint=eastwest;top=0;left=0;right=0;bottom=0;" parent="NHdadTuBNZMEaG2oG-7Y-385" vertex="1">
          <mxGeometry y="150" width="360" height="30" as="geometry" />
        </mxCell>
        <mxCell id="NHdadTuBNZMEaG2oG-7Y-399" value="" style="shape=partialRectangle;connectable=0;fillColor=none;top=0;left=0;bottom=0;right=0;editable=1;overflow=hidden;whiteSpace=wrap;html=1;horizontal=1;" parent="NHdadTuBNZMEaG2oG-7Y-398" vertex="1">
          <mxGeometry width="40" height="30" as="geometry">
            <mxRectangle width="40" height="30" as="alternateBounds" />
          </mxGeometry>
        </mxCell>
        <mxCell id="NHdadTuBNZMEaG2oG-7Y-400" value="usr_message VARCHAR(255) " style="shape=partialRectangle;connectable=0;fillColor=none;top=0;left=0;bottom=0;right=0;align=left;spacingLeft=6;overflow=hidden;whiteSpace=wrap;html=1;horizontal=1;" parent="NHdadTuBNZMEaG2oG-7Y-398" vertex="1">
          <mxGeometry x="40" width="320" height="30" as="geometry">
            <mxRectangle width="320" height="30" as="alternateBounds" />
          </mxGeometry>
        </mxCell>
        <mxCell id="NHdadTuBNZMEaG2oG-7Y-414" value="bookings" style="shape=table;startSize=30;container=1;collapsible=1;childLayout=tableLayout;fixedRows=1;rowLines=0;fontStyle=1;align=center;resizeLast=1;html=1;horizontal=1;" parent="1" vertex="1">
          <mxGeometry x="-2120" y="-840" width="360" height="180" as="geometry" />
        </mxCell>
        <mxCell id="NHdadTuBNZMEaG2oG-7Y-415" value="" style="shape=tableRow;horizontal=1;startSize=0;swimlaneHead=0;swimlaneBody=0;fillColor=none;collapsible=0;dropTarget=0;points=[[0,0.5],[1,0.5]];portConstraint=eastwest;top=0;left=0;right=0;bottom=1;" parent="NHdadTuBNZMEaG2oG-7Y-414" vertex="1">
          <mxGeometry y="30" width="360" height="30" as="geometry" />
        </mxCell>
        <mxCell id="NHdadTuBNZMEaG2oG-7Y-416" value="PK" style="shape=partialRectangle;connectable=0;fillColor=none;top=0;left=0;bottom=0;right=0;fontStyle=1;overflow=hidden;whiteSpace=wrap;html=1;horizontal=1;" parent="NHdadTuBNZMEaG2oG-7Y-415" vertex="1">
          <mxGeometry width="50" height="30" as="geometry">
            <mxRectangle width="50" height="30" as="alternateBounds" />
          </mxGeometry>
        </mxCell>
        <mxCell id="NHdadTuBNZMEaG2oG-7Y-417" value="bkng_id INT auto_increment" style="shape=partialRectangle;connectable=0;fillColor=none;top=0;left=0;bottom=0;right=0;align=left;spacingLeft=6;fontStyle=5;overflow=hidden;whiteSpace=wrap;html=1;horizontal=1;" parent="NHdadTuBNZMEaG2oG-7Y-415" vertex="1">
          <mxGeometry x="50" width="310" height="30" as="geometry">
            <mxRectangle width="310" height="30" as="alternateBounds" />
          </mxGeometry>
        </mxCell>
        <mxCell id="NHdadTuBNZMEaG2oG-7Y-418" value="" style="shape=tableRow;horizontal=1;startSize=0;swimlaneHead=0;swimlaneBody=0;fillColor=none;collapsible=0;dropTarget=0;points=[[0,0.5],[1,0.5]];portConstraint=eastwest;top=0;left=0;right=0;bottom=0;" parent="NHdadTuBNZMEaG2oG-7Y-414" vertex="1">
          <mxGeometry y="60" width="360" height="30" as="geometry" />
        </mxCell>
        <mxCell id="NHdadTuBNZMEaG2oG-7Y-419" value="&lt;b&gt;FK, IDX&lt;/b&gt;" style="shape=partialRectangle;connectable=0;fillColor=none;top=0;left=0;bottom=0;right=0;editable=1;overflow=hidden;whiteSpace=wrap;html=1;horizontal=1;" parent="NHdadTuBNZMEaG2oG-7Y-418" vertex="1">
          <mxGeometry width="50" height="30" as="geometry">
            <mxRectangle width="50" height="30" as="alternateBounds" />
          </mxGeometry>
        </mxCell>
        <mxCell id="NHdadTuBNZMEaG2oG-7Y-420" value="bkng_made_by INT UNSIGNED " style="shape=partialRectangle;connectable=0;fillColor=none;top=0;left=0;bottom=0;right=0;align=left;spacingLeft=6;overflow=hidden;whiteSpace=wrap;html=1;horizontal=1;" parent="NHdadTuBNZMEaG2oG-7Y-418" vertex="1">
          <mxGeometry x="50" width="310" height="30" as="geometry">
            <mxRectangle width="310" height="30" as="alternateBounds" />
          </mxGeometry>
        </mxCell>
        <mxCell id="NHdadTuBNZMEaG2oG-7Y-421" value="" style="shape=tableRow;horizontal=1;startSize=0;swimlaneHead=0;swimlaneBody=0;fillColor=none;collapsible=0;dropTarget=0;points=[[0,0.5],[1,0.5]];portConstraint=eastwest;top=0;left=0;right=0;bottom=0;" parent="NHdadTuBNZMEaG2oG-7Y-414" vertex="1">
          <mxGeometry y="90" width="360" height="30" as="geometry" />
        </mxCell>
        <mxCell id="NHdadTuBNZMEaG2oG-7Y-422" value="" style="shape=partialRectangle;connectable=0;fillColor=none;top=0;left=0;bottom=0;right=0;editable=1;overflow=hidden;whiteSpace=wrap;html=1;horizontal=1;" parent="NHdadTuBNZMEaG2oG-7Y-421" vertex="1">
          <mxGeometry width="50" height="30" as="geometry">
            <mxRectangle width="50" height="30" as="alternateBounds" />
          </mxGeometry>
        </mxCell>
        <mxCell id="NHdadTuBNZMEaG2oG-7Y-423" value="opened_at DATETIME" style="shape=partialRectangle;connectable=0;fillColor=none;top=0;left=0;bottom=0;right=0;align=left;spacingLeft=6;overflow=hidden;whiteSpace=wrap;html=1;horizontal=1;" parent="NHdadTuBNZMEaG2oG-7Y-421" vertex="1">
          <mxGeometry x="50" width="310" height="30" as="geometry">
            <mxRectangle width="310" height="30" as="alternateBounds" />
          </mxGeometry>
        </mxCell>
        <mxCell id="NHdadTuBNZMEaG2oG-7Y-424" value="" style="shape=tableRow;horizontal=1;startSize=0;swimlaneHead=0;swimlaneBody=0;fillColor=none;collapsible=0;dropTarget=0;points=[[0,0.5],[1,0.5]];portConstraint=eastwest;top=0;left=0;right=0;bottom=0;" parent="NHdadTuBNZMEaG2oG-7Y-414" vertex="1">
          <mxGeometry y="120" width="360" height="30" as="geometry" />
        </mxCell>
        <mxCell id="NHdadTuBNZMEaG2oG-7Y-425" value="" style="shape=partialRectangle;connectable=0;fillColor=none;top=0;left=0;bottom=0;right=0;editable=1;overflow=hidden;whiteSpace=wrap;html=1;horizontal=1;" parent="NHdadTuBNZMEaG2oG-7Y-424" vertex="1">
          <mxGeometry width="50" height="30" as="geometry">
            <mxRectangle width="50" height="30" as="alternateBounds" />
          </mxGeometry>
        </mxCell>
        <mxCell id="NHdadTuBNZMEaG2oG-7Y-426" value="closed_at DATETIME" style="shape=partialRectangle;connectable=0;fillColor=none;top=0;left=0;bottom=0;right=0;align=left;spacingLeft=6;overflow=hidden;whiteSpace=wrap;html=1;horizontal=1;" parent="NHdadTuBNZMEaG2oG-7Y-424" vertex="1">
          <mxGeometry x="50" width="310" height="30" as="geometry">
            <mxRectangle width="310" height="30" as="alternateBounds" />
          </mxGeometry>
        </mxCell>
        <mxCell id="NHdadTuBNZMEaG2oG-7Y-427" value="" style="shape=tableRow;horizontal=1;startSize=0;swimlaneHead=0;swimlaneBody=0;fillColor=none;collapsible=0;dropTarget=0;points=[[0,0.5],[1,0.5]];portConstraint=eastwest;top=0;left=0;right=0;bottom=0;" parent="NHdadTuBNZMEaG2oG-7Y-414" vertex="1">
          <mxGeometry y="150" width="360" height="30" as="geometry" />
        </mxCell>
        <mxCell id="NHdadTuBNZMEaG2oG-7Y-428" value="&lt;b&gt;FK, IDX&lt;/b&gt;" style="shape=partialRectangle;connectable=0;fillColor=none;top=0;left=0;bottom=0;right=0;editable=1;overflow=hidden;whiteSpace=wrap;html=1;horizontal=1;" parent="NHdadTuBNZMEaG2oG-7Y-427" vertex="1">
          <mxGeometry width="50" height="30" as="geometry">
            <mxRectangle width="50" height="30" as="alternateBounds" />
          </mxGeometry>
        </mxCell>
        <mxCell id="NHdadTuBNZMEaG2oG-7Y-429" value="status_id SMALLINT " style="shape=partialRectangle;connectable=0;fillColor=none;top=0;left=0;bottom=0;right=0;align=left;spacingLeft=6;overflow=hidden;whiteSpace=wrap;html=1;horizontal=1;" parent="NHdadTuBNZMEaG2oG-7Y-427" vertex="1">
          <mxGeometry x="50" width="310" height="30" as="geometry">
            <mxRectangle width="310" height="30" as="alternateBounds" />
          </mxGeometry>
        </mxCell>
        <mxCell id="NHdadTuBNZMEaG2oG-7Y-430" value="" style="edgeStyle=entityRelationEdgeStyle;fontSize=12;html=1;endArrow=ERzeroToMany;startArrow=ERmandOne;rounded=1;entryX=1;entryY=0.5;entryDx=0;entryDy=0;curved=0;exitX=1;exitY=0.791;exitDx=0;exitDy=0;exitPerimeter=0;horizontal=1;" parent="1" source="NHdadTuBNZMEaG2oG-7Y-386" target="NHdadTuBNZMEaG2oG-7Y-418" edge="1">
          <mxGeometry width="100" height="100" relative="1" as="geometry">
            <mxPoint x="-1860" y="-975" as="sourcePoint" />
            <mxPoint x="-1630" y="-815" as="targetPoint" />
          </mxGeometry>
        </mxCell>
        <mxCell id="NHdadTuBNZMEaG2oG-7Y-445" value="booking_statuses" style="shape=table;startSize=30;container=1;collapsible=1;childLayout=tableLayout;fixedRows=1;rowLines=0;fontStyle=1;align=center;resizeLast=1;html=1;horizontal=1;" parent="1" vertex="1">
          <mxGeometry x="-2540" y="-960" width="360" height="90" as="geometry" />
        </mxCell>
        <mxCell id="NHdadTuBNZMEaG2oG-7Y-446" value="" style="shape=tableRow;horizontal=1;startSize=0;swimlaneHead=0;swimlaneBody=0;fillColor=none;collapsible=0;dropTarget=0;points=[[0,0.5],[1,0.5]];portConstraint=eastwest;top=0;left=0;right=0;bottom=1;" parent="NHdadTuBNZMEaG2oG-7Y-445" vertex="1">
          <mxGeometry y="30" width="360" height="30" as="geometry" />
        </mxCell>
        <mxCell id="NHdadTuBNZMEaG2oG-7Y-447" value="PK" style="shape=partialRectangle;connectable=0;fillColor=none;top=0;left=0;bottom=0;right=0;fontStyle=1;overflow=hidden;whiteSpace=wrap;html=1;horizontal=1;" parent="NHdadTuBNZMEaG2oG-7Y-446" vertex="1">
          <mxGeometry width="40" height="30" as="geometry">
            <mxRectangle width="40" height="30" as="alternateBounds" />
          </mxGeometry>
        </mxCell>
        <mxCell id="NHdadTuBNZMEaG2oG-7Y-448" value="bkst_id SMALLINT AUTO_INCREMENT" style="shape=partialRectangle;connectable=0;fillColor=none;top=0;left=0;bottom=0;right=0;align=left;spacingLeft=6;fontStyle=5;overflow=hidden;whiteSpace=wrap;html=1;horizontal=1;" parent="NHdadTuBNZMEaG2oG-7Y-446" vertex="1">
          <mxGeometry x="40" width="320" height="30" as="geometry">
            <mxRectangle width="320" height="30" as="alternateBounds" />
          </mxGeometry>
        </mxCell>
        <mxCell id="NHdadTuBNZMEaG2oG-7Y-449" value="" style="shape=tableRow;horizontal=1;startSize=0;swimlaneHead=0;swimlaneBody=0;fillColor=none;collapsible=0;dropTarget=0;points=[[0,0.5],[1,0.5]];portConstraint=eastwest;top=0;left=0;right=0;bottom=0;" parent="NHdadTuBNZMEaG2oG-7Y-445" vertex="1">
          <mxGeometry y="60" width="360" height="30" as="geometry" />
        </mxCell>
        <mxCell id="NHdadTuBNZMEaG2oG-7Y-450" value="&lt;b&gt;UNQ&lt;/b&gt;" style="shape=partialRectangle;connectable=0;fillColor=none;top=0;left=0;bottom=0;right=0;editable=1;overflow=hidden;whiteSpace=wrap;html=1;horizontal=1;" parent="NHdadTuBNZMEaG2oG-7Y-449" vertex="1">
          <mxGeometry width="40" height="30" as="geometry">
            <mxRectangle width="40" height="30" as="alternateBounds" />
          </mxGeometry>
        </mxCell>
        <mxCell id="NHdadTuBNZMEaG2oG-7Y-451" value="bkst_name VARCHAR(255)" style="shape=partialRectangle;connectable=0;fillColor=none;top=0;left=0;bottom=0;right=0;align=left;spacingLeft=6;overflow=hidden;whiteSpace=wrap;html=1;horizontal=1;" parent="NHdadTuBNZMEaG2oG-7Y-449" vertex="1">
          <mxGeometry x="40" width="320" height="30" as="geometry">
            <mxRectangle width="320" height="30" as="alternateBounds" />
          </mxGeometry>
        </mxCell>
        <mxCell id="NHdadTuBNZMEaG2oG-7Y-462" value="" style="edgeStyle=entityRelationEdgeStyle;fontSize=12;html=1;endArrow=ERzeroToMany;startArrow=ERmandOne;rounded=1;exitX=1;exitY=0.5;exitDx=0;exitDy=0;entryX=0;entryY=0.5;entryDx=0;entryDy=0;curved=0;horizontal=1;" parent="1" source="NHdadTuBNZMEaG2oG-7Y-446" target="NHdadTuBNZMEaG2oG-7Y-427" edge="1">
          <mxGeometry width="100" height="100" relative="1" as="geometry">
            <mxPoint x="-2300" y="-770" as="sourcePoint" />
            <mxPoint x="-2500" y="-835" as="targetPoint" />
          </mxGeometry>
        </mxCell>
        <mxCell id="NHdadTuBNZMEaG2oG-7Y-472" value="categories" style="shape=table;startSize=30;container=1;collapsible=1;childLayout=tableLayout;fixedRows=1;rowLines=0;fontStyle=1;align=center;resizeLast=1;html=1;rounded=0;swimlaneLine=1;shadow=0;horizontal=1;" parent="1" vertex="1">
          <mxGeometry x="-2960" y="-1840" width="360" height="120" as="geometry" />
        </mxCell>
        <mxCell id="NHdadTuBNZMEaG2oG-7Y-473" value="" style="shape=tableRow;horizontal=1;startSize=0;swimlaneHead=0;swimlaneBody=0;fillColor=none;collapsible=0;dropTarget=0;points=[[0,0.5],[1,0.5]];portConstraint=eastwest;top=0;left=0;right=0;bottom=1;" parent="NHdadTuBNZMEaG2oG-7Y-472" vertex="1">
          <mxGeometry y="30" width="360" height="30" as="geometry" />
        </mxCell>
        <mxCell id="NHdadTuBNZMEaG2oG-7Y-474" value="PK" style="shape=partialRectangle;connectable=0;fillColor=none;top=0;left=0;bottom=0;right=0;fontStyle=1;overflow=hidden;whiteSpace=wrap;html=1;horizontal=1;" parent="NHdadTuBNZMEaG2oG-7Y-473" vertex="1">
          <mxGeometry width="40" height="30" as="geometry">
            <mxRectangle width="40" height="30" as="alternateBounds" />
          </mxGeometry>
        </mxCell>
        <mxCell id="NHdadTuBNZMEaG2oG-7Y-475" value="ctg_id INT AUTO_INCREMENT" style="shape=partialRectangle;connectable=0;fillColor=none;top=0;left=0;bottom=0;right=0;align=left;spacingLeft=6;fontStyle=5;overflow=hidden;whiteSpace=wrap;html=1;horizontal=1;" parent="NHdadTuBNZMEaG2oG-7Y-473" vertex="1">
          <mxGeometry x="40" width="320" height="30" as="geometry">
            <mxRectangle width="320" height="30" as="alternateBounds" />
          </mxGeometry>
        </mxCell>
        <mxCell id="NHdadTuBNZMEaG2oG-7Y-476" value="" style="shape=tableRow;horizontal=1;startSize=0;swimlaneHead=0;swimlaneBody=0;fillColor=none;collapsible=0;dropTarget=0;points=[[0,0.5],[1,0.5]];portConstraint=eastwest;top=0;left=0;right=0;bottom=0;" parent="NHdadTuBNZMEaG2oG-7Y-472" vertex="1">
          <mxGeometry y="60" width="360" height="30" as="geometry" />
        </mxCell>
        <mxCell id="NHdadTuBNZMEaG2oG-7Y-477" value="&lt;b&gt;UNQ&lt;/b&gt;" style="shape=partialRectangle;connectable=0;fillColor=none;top=0;left=0;bottom=0;right=0;editable=1;overflow=hidden;whiteSpace=wrap;html=1;horizontal=1;" parent="NHdadTuBNZMEaG2oG-7Y-476" vertex="1">
          <mxGeometry width="40" height="30" as="geometry">
            <mxRectangle width="40" height="30" as="alternateBounds" />
          </mxGeometry>
        </mxCell>
        <mxCell id="NHdadTuBNZMEaG2oG-7Y-478" value="ctg_name VARCHAR(50)" style="shape=partialRectangle;connectable=0;fillColor=none;top=0;left=0;bottom=0;right=0;align=left;spacingLeft=6;overflow=hidden;whiteSpace=wrap;html=1;horizontal=1;" parent="NHdadTuBNZMEaG2oG-7Y-476" vertex="1">
          <mxGeometry x="40" width="320" height="30" as="geometry">
            <mxRectangle width="320" height="30" as="alternateBounds" />
          </mxGeometry>
        </mxCell>
        <mxCell id="NHdadTuBNZMEaG2oG-7Y-479" value="" style="shape=tableRow;horizontal=1;startSize=0;swimlaneHead=0;swimlaneBody=0;fillColor=none;collapsible=0;dropTarget=0;points=[[0,0.5],[1,0.5]];portConstraint=eastwest;top=0;left=0;right=0;bottom=0;" parent="NHdadTuBNZMEaG2oG-7Y-472" vertex="1">
          <mxGeometry y="90" width="360" height="30" as="geometry" />
        </mxCell>
        <mxCell id="NHdadTuBNZMEaG2oG-7Y-480" value="" style="shape=partialRectangle;connectable=0;fillColor=none;top=0;left=0;bottom=0;right=0;editable=1;overflow=hidden;whiteSpace=wrap;html=1;horizontal=1;" parent="NHdadTuBNZMEaG2oG-7Y-479" vertex="1">
          <mxGeometry width="40" height="30" as="geometry">
            <mxRectangle width="40" height="30" as="alternateBounds" />
          </mxGeometry>
        </mxCell>
        <mxCell id="NHdadTuBNZMEaG2oG-7Y-481" value="ctg_description TEXT DEFAULT NULL" style="shape=partialRectangle;connectable=0;fillColor=none;top=0;left=0;bottom=0;right=0;align=left;spacingLeft=6;overflow=hidden;whiteSpace=wrap;html=1;horizontal=1;" parent="NHdadTuBNZMEaG2oG-7Y-479" vertex="1">
          <mxGeometry x="40" width="320" height="30" as="geometry">
            <mxRectangle width="320" height="30" as="alternateBounds" />
          </mxGeometry>
        </mxCell>
        <mxCell id="NHdadTuBNZMEaG2oG-7Y-482" value="" style="edgeStyle=entityRelationEdgeStyle;fontSize=12;html=1;endArrow=ERzeroToMany;startArrow=ERmandOne;rounded=1;entryX=0;entryY=0.5;entryDx=0;entryDy=0;exitX=1;exitY=0.152;exitDx=0;exitDy=0;curved=0;exitPerimeter=0;horizontal=1;" parent="1" source="NHdadTuBNZMEaG2oG-7Y-473" target="NHdadTuBNZMEaG2oG-7Y-494" edge="1">
          <mxGeometry width="100" height="100" relative="1" as="geometry">
            <mxPoint x="-2620" y="-1804.01" as="sourcePoint" />
            <mxPoint x="-2540" y="-1916" as="targetPoint" />
            <Array as="points">
              <mxPoint x="-2600" y="-1804" />
              <mxPoint x="-1697" y="-1906" />
              <mxPoint x="-1287" y="-1876" />
              <mxPoint x="-1357" y="-1906" />
              <mxPoint x="-1757" y="-1856" />
              <mxPoint x="-1337" y="-1946" />
            </Array>
          </mxGeometry>
        </mxCell>
        <mxCell id="NHdadTuBNZMEaG2oG-7Y-483" value="" style="edgeStyle=entityRelationEdgeStyle;fontSize=12;html=1;endArrow=ERzeroToMany;startArrow=ERmandOne;rounded=1;entryX=0;entryY=0.5;entryDx=0;entryDy=0;exitX=1;exitY=0.5;exitDx=0;exitDy=0;curved=0;horizontal=1;" parent="1" source="NHdadTuBNZMEaG2oG-7Y-473" target="NHdadTuBNZMEaG2oG-7Y-530" edge="1">
          <mxGeometry width="100" height="100" relative="1" as="geometry">
            <mxPoint x="-2620.72" y="-1791.77" as="sourcePoint" />
            <mxPoint x="-1660" y="-1826" as="targetPoint" />
          </mxGeometry>
        </mxCell>
        <mxCell id="NHdadTuBNZMEaG2oG-7Y-487" value="meta_category_specs" style="shape=table;startSize=30;container=1;collapsible=1;childLayout=tableLayout;fixedRows=1;rowLines=0;fontStyle=1;align=center;resizeLast=1;html=1;horizontal=1;" parent="1" vertex="1">
          <mxGeometry x="-2540" y="-2000" width="360" height="120" as="geometry" />
        </mxCell>
        <mxCell id="NHdadTuBNZMEaG2oG-7Y-488" value="" style="shape=tableRow;horizontal=1;startSize=0;swimlaneHead=0;swimlaneBody=0;fillColor=none;collapsible=0;dropTarget=0;points=[[0,0.5],[1,0.5]];portConstraint=eastwest;top=0;left=0;right=0;bottom=1;" parent="NHdadTuBNZMEaG2oG-7Y-487" vertex="1">
          <mxGeometry y="30" width="360" height="30" as="geometry" />
        </mxCell>
        <mxCell id="NHdadTuBNZMEaG2oG-7Y-489" value="PK" style="shape=partialRectangle;connectable=0;fillColor=none;top=0;left=0;bottom=0;right=0;fontStyle=1;overflow=hidden;whiteSpace=wrap;html=1;horizontal=1;" parent="NHdadTuBNZMEaG2oG-7Y-488" vertex="1">
          <mxGeometry width="50" height="30" as="geometry">
            <mxRectangle width="50" height="30" as="alternateBounds" />
          </mxGeometry>
        </mxCell>
        <mxCell id="NHdadTuBNZMEaG2oG-7Y-490" value="cs_id INT AUTO_INCREMENT" style="shape=partialRectangle;connectable=0;fillColor=none;top=0;left=0;bottom=0;right=0;align=left;spacingLeft=6;fontStyle=5;overflow=hidden;whiteSpace=wrap;html=1;horizontal=1;" parent="NHdadTuBNZMEaG2oG-7Y-488" vertex="1">
          <mxGeometry x="50" width="310" height="30" as="geometry">
            <mxRectangle width="310" height="30" as="alternateBounds" />
          </mxGeometry>
        </mxCell>
        <mxCell id="NHdadTuBNZMEaG2oG-7Y-491" value="" style="shape=tableRow;horizontal=1;startSize=0;swimlaneHead=0;swimlaneBody=0;fillColor=none;collapsible=0;dropTarget=0;points=[[0,0.5],[1,0.5]];portConstraint=eastwest;top=0;left=0;right=0;bottom=0;" parent="NHdadTuBNZMEaG2oG-7Y-487" vertex="1">
          <mxGeometry y="60" width="360" height="30" as="geometry" />
        </mxCell>
        <mxCell id="NHdadTuBNZMEaG2oG-7Y-492" value="" style="shape=partialRectangle;connectable=0;fillColor=none;top=0;left=0;bottom=0;right=0;editable=1;overflow=hidden;whiteSpace=wrap;html=1;horizontal=1;" parent="NHdadTuBNZMEaG2oG-7Y-491" vertex="1">
          <mxGeometry width="50" height="30" as="geometry">
            <mxRectangle width="50" height="30" as="alternateBounds" />
          </mxGeometry>
        </mxCell>
        <mxCell id="NHdadTuBNZMEaG2oG-7Y-493" value="cs_specs VARCHAR(64) DEFAULT NULL" style="shape=partialRectangle;connectable=0;fillColor=none;top=0;left=0;bottom=0;right=0;align=left;spacingLeft=6;overflow=hidden;whiteSpace=wrap;html=1;horizontal=1;" parent="NHdadTuBNZMEaG2oG-7Y-491" vertex="1">
          <mxGeometry x="50" width="310" height="30" as="geometry">
            <mxRectangle width="310" height="30" as="alternateBounds" />
          </mxGeometry>
        </mxCell>
        <mxCell id="NHdadTuBNZMEaG2oG-7Y-494" value="" style="shape=tableRow;horizontal=1;startSize=0;swimlaneHead=0;swimlaneBody=0;fillColor=none;collapsible=0;dropTarget=0;points=[[0,0.5],[1,0.5]];portConstraint=eastwest;top=0;left=0;right=0;bottom=0;" parent="NHdadTuBNZMEaG2oG-7Y-487" vertex="1">
          <mxGeometry y="90" width="360" height="30" as="geometry" />
        </mxCell>
        <mxCell id="NHdadTuBNZMEaG2oG-7Y-495" value="&lt;b&gt;FK, IDX&lt;/b&gt;" style="shape=partialRectangle;connectable=0;fillColor=none;top=0;left=0;bottom=0;right=0;editable=1;overflow=hidden;whiteSpace=wrap;html=1;horizontal=1;" parent="NHdadTuBNZMEaG2oG-7Y-494" vertex="1">
          <mxGeometry width="50" height="30" as="geometry">
            <mxRectangle width="50" height="30" as="alternateBounds" />
          </mxGeometry>
        </mxCell>
        <mxCell id="NHdadTuBNZMEaG2oG-7Y-496" value="cs_category_id INT" style="shape=partialRectangle;connectable=0;fillColor=none;top=0;left=0;bottom=0;right=0;align=left;spacingLeft=6;overflow=hidden;whiteSpace=wrap;html=1;horizontal=1;" parent="NHdadTuBNZMEaG2oG-7Y-494" vertex="1">
          <mxGeometry x="50" width="310" height="30" as="geometry">
            <mxRectangle width="310" height="30" as="alternateBounds" />
          </mxGeometry>
        </mxCell>
        <mxCell id="NHdadTuBNZMEaG2oG-7Y-502" value="" style="edgeStyle=entityRelationEdgeStyle;fontSize=12;html=1;endArrow=ERzeroToMany;startArrow=ERmandOne;rounded=1;exitX=1.001;exitY=0.833;exitDx=0;exitDy=0;exitPerimeter=0;entryX=0;entryY=0.5;entryDx=0;entryDy=0;curved=0;horizontal=1;" parent="1" source="NHdadTuBNZMEaG2oG-7Y-473" target="NHdadTuBNZMEaG2oG-7Y-653" edge="1">
          <mxGeometry width="100" height="100" relative="1" as="geometry">
            <mxPoint x="-2620.08" y="-1786.38" as="sourcePoint" />
            <mxPoint x="-2540" y="-1676" as="targetPoint" />
            <Array as="points">
              <mxPoint x="-2589" y="-1802" />
              <mxPoint x="-2573.64" y="-1656.93" />
            </Array>
          </mxGeometry>
        </mxCell>
        <mxCell id="NHdadTuBNZMEaG2oG-7Y-503" value="" style="edgeStyle=entityRelationEdgeStyle;fontSize=12;html=1;endArrow=ERzeroToMany;startArrow=ERmandOne;rounded=1;entryX=1;entryY=0.5;entryDx=0;entryDy=0;exitX=0;exitY=0.5;exitDx=0;exitDy=0;curved=0;horizontal=1;" parent="1" source="NHdadTuBNZMEaG2oG-7Y-505" target="NHdadTuBNZMEaG2oG-7Y-656" edge="1">
          <mxGeometry width="100" height="100" relative="1" as="geometry">
            <mxPoint x="-2240" y="-1410" as="sourcePoint" />
            <mxPoint x="-2160" y="-1630" as="targetPoint" />
          </mxGeometry>
        </mxCell>
        <mxCell id="NHdadTuBNZMEaG2oG-7Y-504" value="tags" style="shape=table;startSize=30;container=1;collapsible=1;childLayout=tableLayout;fixedRows=1;rowLines=0;fontStyle=1;align=center;resizeLast=1;html=1;horizontal=1;" parent="1" vertex="1">
          <mxGeometry x="-2120" y="-1600" width="360" height="150" as="geometry" />
        </mxCell>
        <mxCell id="NHdadTuBNZMEaG2oG-7Y-505" value="" style="shape=tableRow;horizontal=1;startSize=0;swimlaneHead=0;swimlaneBody=0;fillColor=none;collapsible=0;dropTarget=0;points=[[0,0.5],[1,0.5]];portConstraint=eastwest;top=0;left=0;right=0;bottom=1;" parent="NHdadTuBNZMEaG2oG-7Y-504" vertex="1">
          <mxGeometry y="30" width="360" height="30" as="geometry" />
        </mxCell>
        <mxCell id="NHdadTuBNZMEaG2oG-7Y-506" value="PK" style="shape=partialRectangle;connectable=0;fillColor=none;top=0;left=0;bottom=0;right=0;fontStyle=1;overflow=hidden;whiteSpace=wrap;html=1;horizontal=1;" parent="NHdadTuBNZMEaG2oG-7Y-505" vertex="1">
          <mxGeometry width="60" height="30" as="geometry">
            <mxRectangle width="60" height="30" as="alternateBounds" />
          </mxGeometry>
        </mxCell>
        <mxCell id="NHdadTuBNZMEaG2oG-7Y-507" value="tg_id INT AUTO_INCREMENT" style="shape=partialRectangle;connectable=0;fillColor=none;top=0;left=0;bottom=0;right=0;align=left;spacingLeft=6;fontStyle=5;overflow=hidden;whiteSpace=wrap;html=1;horizontal=1;" parent="NHdadTuBNZMEaG2oG-7Y-505" vertex="1">
          <mxGeometry x="60" width="300" height="30" as="geometry">
            <mxRectangle width="300" height="30" as="alternateBounds" />
          </mxGeometry>
        </mxCell>
        <mxCell id="NHdadTuBNZMEaG2oG-7Y-508" value="" style="shape=tableRow;horizontal=1;startSize=0;swimlaneHead=0;swimlaneBody=0;fillColor=none;collapsible=0;dropTarget=0;points=[[0,0.5],[1,0.5]];portConstraint=eastwest;top=0;left=0;right=0;bottom=0;" parent="NHdadTuBNZMEaG2oG-7Y-504" vertex="1">
          <mxGeometry y="60" width="360" height="30" as="geometry" />
        </mxCell>
        <mxCell id="NHdadTuBNZMEaG2oG-7Y-509" value="&lt;b&gt;UNQ&lt;/b&gt;" style="shape=partialRectangle;connectable=0;fillColor=none;top=0;left=0;bottom=0;right=0;editable=1;overflow=hidden;whiteSpace=wrap;html=1;horizontal=1;" parent="NHdadTuBNZMEaG2oG-7Y-508" vertex="1">
          <mxGeometry width="60" height="30" as="geometry">
            <mxRectangle width="60" height="30" as="alternateBounds" />
          </mxGeometry>
        </mxCell>
        <mxCell id="NHdadTuBNZMEaG2oG-7Y-510" value="tg_lable VARCHAR(50)" style="shape=partialRectangle;connectable=0;fillColor=none;top=0;left=0;bottom=0;right=0;align=left;spacingLeft=6;overflow=hidden;whiteSpace=wrap;html=1;horizontal=1;" parent="NHdadTuBNZMEaG2oG-7Y-508" vertex="1">
          <mxGeometry x="60" width="300" height="30" as="geometry">
            <mxRectangle width="300" height="30" as="alternateBounds" />
          </mxGeometry>
        </mxCell>
        <mxCell id="NHdadTuBNZMEaG2oG-7Y-511" value="" style="shape=tableRow;horizontal=1;startSize=0;swimlaneHead=0;swimlaneBody=0;fillColor=none;collapsible=0;dropTarget=0;points=[[0,0.5],[1,0.5]];portConstraint=eastwest;top=0;left=0;right=0;bottom=0;" parent="NHdadTuBNZMEaG2oG-7Y-504" vertex="1">
          <mxGeometry y="90" width="360" height="30" as="geometry" />
        </mxCell>
        <mxCell id="NHdadTuBNZMEaG2oG-7Y-512" value="" style="shape=partialRectangle;connectable=0;fillColor=none;top=0;left=0;bottom=0;right=0;editable=1;overflow=hidden;whiteSpace=wrap;html=1;horizontal=1;" parent="NHdadTuBNZMEaG2oG-7Y-511" vertex="1">
          <mxGeometry width="60" height="30" as="geometry">
            <mxRectangle width="60" height="30" as="alternateBounds" />
          </mxGeometry>
        </mxCell>
        <mxCell id="NHdadTuBNZMEaG2oG-7Y-513" value="tg_description VARCHAR(255)" style="shape=partialRectangle;connectable=0;fillColor=none;top=0;left=0;bottom=0;right=0;align=left;spacingLeft=6;overflow=hidden;whiteSpace=wrap;html=1;horizontal=1;" parent="NHdadTuBNZMEaG2oG-7Y-511" vertex="1">
          <mxGeometry x="60" width="300" height="30" as="geometry">
            <mxRectangle width="300" height="30" as="alternateBounds" />
          </mxGeometry>
        </mxCell>
        <mxCell id="NHdadTuBNZMEaG2oG-7Y-514" value="" style="shape=tableRow;horizontal=1;startSize=0;swimlaneHead=0;swimlaneBody=0;fillColor=none;collapsible=0;dropTarget=0;points=[[0,0.5],[1,0.5]];portConstraint=eastwest;top=0;left=0;right=0;bottom=0;" parent="NHdadTuBNZMEaG2oG-7Y-504" vertex="1">
          <mxGeometry y="120" width="360" height="30" as="geometry" />
        </mxCell>
        <mxCell id="NHdadTuBNZMEaG2oG-7Y-515" value="&lt;b&gt;FK, IDX&lt;/b&gt;" style="shape=partialRectangle;connectable=0;fillColor=none;top=0;left=0;bottom=0;right=0;editable=1;overflow=hidden;whiteSpace=wrap;html=1;horizontal=1;" parent="NHdadTuBNZMEaG2oG-7Y-514" vertex="1">
          <mxGeometry width="60" height="30" as="geometry">
            <mxRectangle width="60" height="30" as="alternateBounds" />
          </mxGeometry>
        </mxCell>
        <mxCell id="NHdadTuBNZMEaG2oG-7Y-516" value="&lt;div align=&quot;left&quot;&gt;tg_created_by INT DEFAULT&amp;nbsp; NULL&lt;/div&gt;" style="shape=partialRectangle;connectable=0;fillColor=none;top=0;left=0;bottom=0;right=0;align=left;spacingLeft=6;overflow=hidden;whiteSpace=wrap;html=1;horizontal=1;" parent="NHdadTuBNZMEaG2oG-7Y-514" vertex="1">
          <mxGeometry x="60" width="300" height="30" as="geometry">
            <mxRectangle width="300" height="30" as="alternateBounds" />
          </mxGeometry>
        </mxCell>
        <mxCell id="NHdadTuBNZMEaG2oG-7Y-517" value="models" style="shape=table;startSize=30;container=1;collapsible=1;childLayout=tableLayout;fixedRows=1;rowLines=0;fontStyle=1;align=center;resizeLast=1;html=1;horizontal=1;" parent="1" vertex="1">
          <mxGeometry x="-2120" y="-1960" width="360" height="210" as="geometry" />
        </mxCell>
        <mxCell id="NHdadTuBNZMEaG2oG-7Y-518" value="" style="shape=tableRow;horizontal=1;startSize=0;swimlaneHead=0;swimlaneBody=0;fillColor=none;collapsible=0;dropTarget=0;points=[[0,0.5],[1,0.5]];portConstraint=eastwest;top=0;left=0;right=0;bottom=1;" parent="NHdadTuBNZMEaG2oG-7Y-517" vertex="1">
          <mxGeometry y="30" width="360" height="30" as="geometry" />
        </mxCell>
        <mxCell id="NHdadTuBNZMEaG2oG-7Y-519" value="PK" style="shape=partialRectangle;connectable=0;fillColor=none;top=0;left=0;bottom=0;right=0;fontStyle=1;overflow=hidden;whiteSpace=wrap;html=1;horizontal=1;" parent="NHdadTuBNZMEaG2oG-7Y-518" vertex="1">
          <mxGeometry width="50" height="30" as="geometry">
            <mxRectangle width="50" height="30" as="alternateBounds" />
          </mxGeometry>
        </mxCell>
        <mxCell id="NHdadTuBNZMEaG2oG-7Y-520" value="mdl_id INT UNSIGNED AUTO_INCREMENT" style="shape=partialRectangle;connectable=0;fillColor=none;top=0;left=0;bottom=0;right=0;align=left;spacingLeft=6;fontStyle=5;overflow=hidden;whiteSpace=wrap;html=1;horizontal=1;" parent="NHdadTuBNZMEaG2oG-7Y-518" vertex="1">
          <mxGeometry x="50" width="310" height="30" as="geometry">
            <mxRectangle width="310" height="30" as="alternateBounds" />
          </mxGeometry>
        </mxCell>
        <mxCell id="NHdadTuBNZMEaG2oG-7Y-521" value="" style="shape=tableRow;horizontal=1;startSize=0;swimlaneHead=0;swimlaneBody=0;fillColor=none;collapsible=0;dropTarget=0;points=[[0,0.5],[1,0.5]];portConstraint=eastwest;top=0;left=0;right=0;bottom=0;" parent="NHdadTuBNZMEaG2oG-7Y-517" vertex="1">
          <mxGeometry y="60" width="360" height="30" as="geometry" />
        </mxCell>
        <mxCell id="NHdadTuBNZMEaG2oG-7Y-522" value="" style="shape=partialRectangle;connectable=0;fillColor=none;top=0;left=0;bottom=0;right=0;editable=1;overflow=hidden;whiteSpace=wrap;html=1;horizontal=1;" parent="NHdadTuBNZMEaG2oG-7Y-521" vertex="1">
          <mxGeometry width="50" height="30" as="geometry">
            <mxRectangle width="50" height="30" as="alternateBounds" />
          </mxGeometry>
        </mxCell>
        <mxCell id="NHdadTuBNZMEaG2oG-7Y-523" value="mdl_name VARCHAR(255)" style="shape=partialRectangle;connectable=0;fillColor=none;top=0;left=0;bottom=0;right=0;align=left;spacingLeft=6;overflow=hidden;whiteSpace=wrap;html=1;horizontal=1;" parent="NHdadTuBNZMEaG2oG-7Y-521" vertex="1">
          <mxGeometry x="50" width="310" height="30" as="geometry">
            <mxRectangle width="310" height="30" as="alternateBounds" />
          </mxGeometry>
        </mxCell>
        <mxCell id="NHdadTuBNZMEaG2oG-7Y-524" value="" style="shape=tableRow;horizontal=1;startSize=0;swimlaneHead=0;swimlaneBody=0;fillColor=none;collapsible=0;dropTarget=0;points=[[0,0.5],[1,0.5]];portConstraint=eastwest;top=0;left=0;right=0;bottom=0;" parent="NHdadTuBNZMEaG2oG-7Y-517" vertex="1">
          <mxGeometry y="90" width="360" height="30" as="geometry" />
        </mxCell>
        <mxCell id="NHdadTuBNZMEaG2oG-7Y-525" value="&lt;b&gt;FK, IDX&lt;/b&gt;" style="shape=partialRectangle;connectable=0;fillColor=none;top=0;left=0;bottom=0;right=0;editable=1;overflow=hidden;whiteSpace=wrap;html=1;horizontal=1;" parent="NHdadTuBNZMEaG2oG-7Y-524" vertex="1">
          <mxGeometry width="50" height="30" as="geometry">
            <mxRectangle width="50" height="30" as="alternateBounds" />
          </mxGeometry>
        </mxCell>
        <mxCell id="NHdadTuBNZMEaG2oG-7Y-526" value="mdl_brand_id INT DEFAULT NULL" style="shape=partialRectangle;connectable=0;fillColor=none;top=0;left=0;bottom=0;right=0;align=left;spacingLeft=6;overflow=hidden;whiteSpace=wrap;html=1;horizontal=1;" parent="NHdadTuBNZMEaG2oG-7Y-524" vertex="1">
          <mxGeometry x="50" width="310" height="30" as="geometry">
            <mxRectangle width="310" height="30" as="alternateBounds" />
          </mxGeometry>
        </mxCell>
        <mxCell id="NHdadTuBNZMEaG2oG-7Y-527" value="" style="shape=tableRow;horizontal=1;startSize=0;swimlaneHead=0;swimlaneBody=0;fillColor=none;collapsible=0;dropTarget=0;points=[[0,0.5],[1,0.5]];portConstraint=eastwest;top=0;left=0;right=0;bottom=0;" parent="NHdadTuBNZMEaG2oG-7Y-517" vertex="1">
          <mxGeometry y="120" width="360" height="30" as="geometry" />
        </mxCell>
        <mxCell id="NHdadTuBNZMEaG2oG-7Y-528" value="" style="shape=partialRectangle;connectable=0;fillColor=none;top=0;left=0;bottom=0;right=0;editable=1;overflow=hidden;whiteSpace=wrap;html=1;horizontal=1;" parent="NHdadTuBNZMEaG2oG-7Y-527" vertex="1">
          <mxGeometry width="50" height="30" as="geometry">
            <mxRectangle width="50" height="30" as="alternateBounds" />
          </mxGeometry>
        </mxCell>
        <mxCell id="NHdadTuBNZMEaG2oG-7Y-529" value="mdl_description TEXT DEFAULT NULL" style="shape=partialRectangle;connectable=0;fillColor=none;top=0;left=0;bottom=0;right=0;align=left;spacingLeft=6;overflow=hidden;whiteSpace=wrap;html=1;horizontal=1;" parent="NHdadTuBNZMEaG2oG-7Y-527" vertex="1">
          <mxGeometry x="50" width="310" height="30" as="geometry">
            <mxRectangle width="310" height="30" as="alternateBounds" />
          </mxGeometry>
        </mxCell>
        <mxCell id="NHdadTuBNZMEaG2oG-7Y-530" value="" style="shape=tableRow;horizontal=1;startSize=0;swimlaneHead=0;swimlaneBody=0;fillColor=none;collapsible=0;dropTarget=0;points=[[0,0.5],[1,0.5]];portConstraint=eastwest;top=0;left=0;right=0;bottom=0;" parent="NHdadTuBNZMEaG2oG-7Y-517" vertex="1">
          <mxGeometry y="150" width="360" height="30" as="geometry" />
        </mxCell>
        <mxCell id="NHdadTuBNZMEaG2oG-7Y-531" value="&lt;b&gt;FK, IDX&lt;/b&gt;" style="shape=partialRectangle;connectable=0;fillColor=none;top=0;left=0;bottom=0;right=0;editable=1;overflow=hidden;whiteSpace=wrap;html=1;horizontal=1;" parent="NHdadTuBNZMEaG2oG-7Y-530" vertex="1">
          <mxGeometry width="50" height="30" as="geometry">
            <mxRectangle width="50" height="30" as="alternateBounds" />
          </mxGeometry>
        </mxCell>
        <mxCell id="NHdadTuBNZMEaG2oG-7Y-532" value="mdl_category_id INT" style="shape=partialRectangle;connectable=0;fillColor=none;top=0;left=0;bottom=0;right=0;align=left;spacingLeft=6;overflow=hidden;whiteSpace=wrap;html=1;horizontal=1;" parent="NHdadTuBNZMEaG2oG-7Y-530" vertex="1">
          <mxGeometry x="50" width="310" height="30" as="geometry">
            <mxRectangle width="310" height="30" as="alternateBounds" />
          </mxGeometry>
        </mxCell>
        <mxCell id="NHdadTuBNZMEaG2oG-7Y-533" value="" style="shape=tableRow;horizontal=1;startSize=0;swimlaneHead=0;swimlaneBody=0;fillColor=none;collapsible=0;dropTarget=0;points=[[0,0.5],[1,0.5]];portConstraint=eastwest;top=0;left=0;right=0;bottom=0;" parent="NHdadTuBNZMEaG2oG-7Y-517" vertex="1">
          <mxGeometry y="180" width="360" height="30" as="geometry" />
        </mxCell>
        <mxCell id="NHdadTuBNZMEaG2oG-7Y-534" value="" style="shape=partialRectangle;connectable=0;fillColor=none;top=0;left=0;bottom=0;right=0;editable=1;overflow=hidden;whiteSpace=wrap;html=1;horizontal=1;" parent="NHdadTuBNZMEaG2oG-7Y-533" vertex="1">
          <mxGeometry width="50" height="30" as="geometry">
            <mxRectangle width="50" height="30" as="alternateBounds" />
          </mxGeometry>
        </mxCell>
        <mxCell id="NHdadTuBNZMEaG2oG-7Y-535" value="mdl_is_in_stock SMALLINT DEFAULT 0" style="shape=partialRectangle;connectable=0;fillColor=none;top=0;left=0;bottom=0;right=0;align=left;spacingLeft=6;overflow=hidden;whiteSpace=wrap;html=1;horizontal=1;" parent="NHdadTuBNZMEaG2oG-7Y-533" vertex="1">
          <mxGeometry x="50" width="310" height="30" as="geometry">
            <mxRectangle width="310" height="30" as="alternateBounds" />
          </mxGeometry>
        </mxCell>
        <mxCell id="NHdadTuBNZMEaG2oG-7Y-537" value="" style="edgeStyle=entityRelationEdgeStyle;fontSize=12;html=1;endArrow=ERzeroToMany;startArrow=ERmandOne;rounded=1;entryX=1;entryY=0.5;entryDx=0;entryDy=0;exitX=0;exitY=0.5;exitDx=0;exitDy=0;dashed=1;curved=0;horizontal=1;" parent="1" source="NHdadTuBNZMEaG2oG-7Y-604" target="NHdadTuBNZMEaG2oG-7Y-524" edge="1">
          <mxGeometry width="100" height="100" relative="1" as="geometry">
            <mxPoint x="-465" y="-1790" as="sourcePoint" />
            <mxPoint x="-305" y="-1925" as="targetPoint" />
          </mxGeometry>
        </mxCell>
        <mxCell id="NHdadTuBNZMEaG2oG-7Y-574" value="" style="edgeStyle=entityRelationEdgeStyle;fontSize=12;html=1;endArrow=ERzeroToMany;startArrow=ERmandOne;rounded=1;exitX=1.001;exitY=0.286;exitDx=0;exitDy=0;entryX=0;entryY=0.5;entryDx=0;entryDy=0;curved=0;exitPerimeter=0;horizontal=1;" parent="1" source="NHdadTuBNZMEaG2oG-7Y-505" target="NHdadTuBNZMEaG2oG-7Y-545" edge="1">
          <mxGeometry width="100" height="100" relative="1" as="geometry">
            <mxPoint x="-1860" y="-1491" as="sourcePoint" />
            <mxPoint x="-1250" y="-1663.5" as="targetPoint" />
          </mxGeometry>
        </mxCell>
        <mxCell id="NHdadTuBNZMEaG2oG-7Y-575" value="" style="edgeStyle=entityRelationEdgeStyle;fontSize=12;html=1;endArrow=ERzeroToMany;startArrow=ERmandOne;rounded=1;exitX=1;exitY=0.5;exitDx=0;exitDy=0;entryX=0;entryY=0.5;entryDx=0;entryDy=0;curved=0;horizontal=1;" parent="1" source="NHdadTuBNZMEaG2oG-7Y-518" target="NHdadTuBNZMEaG2oG-7Y-542" edge="1">
          <mxGeometry width="100" height="100" relative="1" as="geometry">
            <mxPoint x="-1150" y="-1660" as="sourcePoint" />
            <mxPoint x="-1050" y="-1760" as="targetPoint" />
          </mxGeometry>
        </mxCell>
        <mxCell id="NHdadTuBNZMEaG2oG-7Y-576" value="m2m_instance_tags" style="shape=table;startSize=30;container=1;collapsible=1;childLayout=tableLayout;fixedRows=1;rowLines=0;fontStyle=1;align=center;resizeLast=1;html=1;horizontal=1;" parent="1" vertex="1">
          <mxGeometry x="-1680" y="-1600" width="300" height="90" as="geometry" />
        </mxCell>
        <mxCell id="NHdadTuBNZMEaG2oG-7Y-577" value="" style="shape=tableRow;horizontal=1;startSize=0;swimlaneHead=0;swimlaneBody=0;fillColor=none;collapsible=0;dropTarget=0;points=[[0,0.5],[1,0.5]];portConstraint=eastwest;top=0;left=0;right=0;bottom=1;" parent="NHdadTuBNZMEaG2oG-7Y-576" vertex="1">
          <mxGeometry y="30" width="300" height="30" as="geometry" />
        </mxCell>
        <mxCell id="NHdadTuBNZMEaG2oG-7Y-578" value="&lt;div&gt;PK, FK&lt;/div&gt;" style="shape=partialRectangle;connectable=0;fillColor=none;top=0;left=0;bottom=0;right=0;fontStyle=1;overflow=hidden;whiteSpace=wrap;html=1;horizontal=1;" parent="NHdadTuBNZMEaG2oG-7Y-577" vertex="1">
          <mxGeometry width="79.99999999999977" height="30" as="geometry">
            <mxRectangle width="79.99999999999977" height="30" as="alternateBounds" />
          </mxGeometry>
        </mxCell>
        <mxCell id="NHdadTuBNZMEaG2oG-7Y-579" value="&lt;div align=&quot;left&quot;&gt;instance_id &lt;code class=&quot;literal&quot;&gt;BIGINT UNSIGNED&lt;/code&gt;&lt;br&gt;&lt;b&gt;&lt;code class=&quot;literal&quot;&gt;&lt;/code&gt;&lt;/b&gt;&lt;/div&gt;" style="shape=partialRectangle;connectable=0;fillColor=none;top=0;left=0;bottom=0;right=0;align=left;spacingLeft=6;fontStyle=5;overflow=hidden;whiteSpace=wrap;html=1;horizontal=1;" parent="NHdadTuBNZMEaG2oG-7Y-577" vertex="1">
          <mxGeometry x="79.99999999999977" width="220.00000000000023" height="30" as="geometry">
            <mxRectangle width="220.00000000000023" height="30" as="alternateBounds" />
          </mxGeometry>
        </mxCell>
        <mxCell id="NHdadTuBNZMEaG2oG-7Y-580" value="" style="shape=tableRow;horizontal=1;startSize=0;swimlaneHead=0;swimlaneBody=0;fillColor=none;collapsible=0;dropTarget=0;points=[[0,0.5],[1,0.5]];portConstraint=eastwest;top=0;left=0;right=0;bottom=0;" parent="NHdadTuBNZMEaG2oG-7Y-576" vertex="1">
          <mxGeometry y="60" width="300" height="30" as="geometry" />
        </mxCell>
        <mxCell id="NHdadTuBNZMEaG2oG-7Y-581" value="&lt;b&gt;PK, FK, IDX&lt;/b&gt;" style="shape=partialRectangle;connectable=0;fillColor=none;top=0;left=0;bottom=0;right=0;editable=1;overflow=hidden;whiteSpace=wrap;html=1;horizontal=1;" parent="NHdadTuBNZMEaG2oG-7Y-580" vertex="1">
          <mxGeometry width="79.99999999999977" height="30" as="geometry">
            <mxRectangle width="79.99999999999977" height="30" as="alternateBounds" />
          </mxGeometry>
        </mxCell>
        <mxCell id="NHdadTuBNZMEaG2oG-7Y-582" value="&lt;b&gt;&lt;u&gt;tag_id INT&lt;/u&gt;&lt;/b&gt;" style="shape=partialRectangle;connectable=0;fillColor=none;top=0;left=0;bottom=0;right=0;align=left;spacingLeft=6;overflow=hidden;whiteSpace=wrap;html=1;horizontal=1;" parent="NHdadTuBNZMEaG2oG-7Y-580" vertex="1">
          <mxGeometry x="79.99999999999977" width="220.00000000000023" height="30" as="geometry">
            <mxRectangle width="220.00000000000023" height="30" as="alternateBounds" />
          </mxGeometry>
        </mxCell>
        <mxCell id="NHdadTuBNZMEaG2oG-7Y-583" value="" style="edgeStyle=entityRelationEdgeStyle;fontSize=12;html=1;endArrow=ERzeroToMany;startArrow=ERmandOne;rounded=1;curved=0;entryX=0;entryY=0.5;entryDx=0;entryDy=0;exitX=0.998;exitY=0.74;exitDx=0;exitDy=0;exitPerimeter=0;horizontal=1;" parent="1" source="NHdadTuBNZMEaG2oG-7Y-505" target="NHdadTuBNZMEaG2oG-7Y-580" edge="1">
          <mxGeometry width="100" height="100" relative="1" as="geometry">
            <mxPoint x="-1730" y="-1478" as="sourcePoint" />
            <mxPoint x="-1660" y="-1388" as="targetPoint" />
          </mxGeometry>
        </mxCell>
        <mxCell id="NHdadTuBNZMEaG2oG-7Y-585" value="" style="edgeStyle=entityRelationEdgeStyle;fontSize=12;html=1;endArrow=ERzeroToMany;startArrow=ERmandOne;rounded=1;entryX=1;entryY=0.5;entryDx=0;entryDy=0;dashed=1;curved=0;horizontal=1;exitX=1;exitY=0.5;exitDx=0;exitDy=0;" parent="1" source="NHdadTuBNZMEaG2oG-7Y-386" target="NHdadTuBNZMEaG2oG-7Y-514" edge="1">
          <mxGeometry width="100" height="100" relative="1" as="geometry">
            <mxPoint x="-1730" y="-1174" as="sourcePoint" />
            <mxPoint x="-1730" y="-1390" as="targetPoint" />
            <Array as="points">
              <mxPoint x="-1720" y="-1175" />
              <mxPoint x="-2080" y="-1304" />
              <mxPoint x="-2130" y="-1304" />
            </Array>
          </mxGeometry>
        </mxCell>
        <mxCell id="NHdadTuBNZMEaG2oG-7Y-603" value="brands" style="shape=table;startSize=30;container=1;collapsible=1;childLayout=tableLayout;fixedRows=1;rowLines=0;fontStyle=1;align=center;resizeLast=1;html=1;horizontal=1;" parent="1" vertex="1">
          <mxGeometry x="-1360" y="-1900" width="360" height="90" as="geometry" />
        </mxCell>
        <mxCell id="NHdadTuBNZMEaG2oG-7Y-604" value="" style="shape=tableRow;horizontal=1;startSize=0;swimlaneHead=0;swimlaneBody=0;fillColor=none;collapsible=0;dropTarget=0;points=[[0,0.5],[1,0.5]];portConstraint=eastwest;top=0;left=0;right=0;bottom=1;" parent="NHdadTuBNZMEaG2oG-7Y-603" vertex="1">
          <mxGeometry y="30" width="360" height="30" as="geometry" />
        </mxCell>
        <mxCell id="NHdadTuBNZMEaG2oG-7Y-605" value="PK" style="shape=partialRectangle;connectable=0;fillColor=none;top=0;left=0;bottom=0;right=0;fontStyle=1;overflow=hidden;whiteSpace=wrap;html=1;horizontal=1;" parent="NHdadTuBNZMEaG2oG-7Y-604" vertex="1">
          <mxGeometry width="40" height="30" as="geometry">
            <mxRectangle width="40" height="30" as="alternateBounds" />
          </mxGeometry>
        </mxCell>
        <mxCell id="NHdadTuBNZMEaG2oG-7Y-606" value="brnd_id INT AUTO_INCREMENT" style="shape=partialRectangle;connectable=0;fillColor=none;top=0;left=0;bottom=0;right=0;align=left;spacingLeft=6;fontStyle=5;overflow=hidden;whiteSpace=wrap;html=1;horizontal=1;" parent="NHdadTuBNZMEaG2oG-7Y-604" vertex="1">
          <mxGeometry x="40" width="320" height="30" as="geometry">
            <mxRectangle width="320" height="30" as="alternateBounds" />
          </mxGeometry>
        </mxCell>
        <mxCell id="NHdadTuBNZMEaG2oG-7Y-607" value="" style="shape=tableRow;horizontal=1;startSize=0;swimlaneHead=0;swimlaneBody=0;fillColor=none;collapsible=0;dropTarget=0;points=[[0,0.5],[1,0.5]];portConstraint=eastwest;top=0;left=0;right=0;bottom=0;" parent="NHdadTuBNZMEaG2oG-7Y-603" vertex="1">
          <mxGeometry y="60" width="360" height="30" as="geometry" />
        </mxCell>
        <mxCell id="NHdadTuBNZMEaG2oG-7Y-608" value="&lt;b&gt;UNQ&lt;/b&gt;" style="shape=partialRectangle;connectable=0;fillColor=none;top=0;left=0;bottom=0;right=0;editable=1;overflow=hidden;whiteSpace=wrap;html=1;horizontal=1;" parent="NHdadTuBNZMEaG2oG-7Y-607" vertex="1">
          <mxGeometry width="40" height="30" as="geometry">
            <mxRectangle width="40" height="30" as="alternateBounds" />
          </mxGeometry>
        </mxCell>
        <mxCell id="NHdadTuBNZMEaG2oG-7Y-609" value="brnd_name VARCHAR(255)" style="shape=partialRectangle;connectable=0;fillColor=none;top=0;left=0;bottom=0;right=0;align=left;spacingLeft=6;overflow=hidden;whiteSpace=wrap;html=1;horizontal=1;" parent="NHdadTuBNZMEaG2oG-7Y-607" vertex="1">
          <mxGeometry x="40" width="320" height="30" as="geometry">
            <mxRectangle width="320" height="30" as="alternateBounds" />
          </mxGeometry>
        </mxCell>
        <mxCell id="NHdadTuBNZMEaG2oG-7Y-649" value="" style="edgeStyle=entityRelationEdgeStyle;fontSize=12;html=1;endArrow=ERzeroToMany;startArrow=ERmandOne;rounded=0;exitX=0;exitY=0.5;exitDx=0;exitDy=0;entryX=1;entryY=0.5;entryDx=0;entryDy=0;horizontal=1;" parent="1" source="NHdadTuBNZMEaG2oG-7Y-386" target="NHdadTuBNZMEaG2oG-7Y-642" edge="1">
          <mxGeometry width="100" height="100" relative="1" as="geometry">
            <mxPoint x="-2480" y="-859" as="sourcePoint" />
            <mxPoint x="-2380" y="-959" as="targetPoint" />
          </mxGeometry>
        </mxCell>
        <mxCell id="NHdadTuBNZMEaG2oG-7Y-652" value="m2m_default_category_tags" style="shape=table;startSize=30;container=1;collapsible=1;childLayout=tableLayout;fixedRows=1;rowLines=0;fontStyle=1;align=center;resizeLast=1;html=1;whiteSpace=wrap;horizontal=1;" parent="1" vertex="1">
          <mxGeometry x="-2540" y="-1720" width="360" height="90" as="geometry" />
        </mxCell>
        <mxCell id="NHdadTuBNZMEaG2oG-7Y-653" value="" style="shape=tableRow;horizontal=1;startSize=0;swimlaneHead=0;swimlaneBody=0;fillColor=none;collapsible=0;dropTarget=0;points=[[0,0.5],[1,0.5]];portConstraint=eastwest;top=0;left=0;right=0;bottom=0;html=1;" parent="NHdadTuBNZMEaG2oG-7Y-652" vertex="1">
          <mxGeometry y="30" width="360" height="30" as="geometry" />
        </mxCell>
        <mxCell id="NHdadTuBNZMEaG2oG-7Y-654" value="PK,FK1" style="shape=partialRectangle;connectable=0;fillColor=none;top=0;left=0;bottom=0;right=0;fontStyle=1;overflow=hidden;html=1;whiteSpace=wrap;horizontal=1;" parent="NHdadTuBNZMEaG2oG-7Y-653" vertex="1">
          <mxGeometry width="50" height="30" as="geometry">
            <mxRectangle width="50" height="30" as="alternateBounds" />
          </mxGeometry>
        </mxCell>
        <mxCell id="NHdadTuBNZMEaG2oG-7Y-655" value="category_id INT" style="shape=partialRectangle;connectable=0;fillColor=none;top=0;left=0;bottom=0;right=0;align=left;spacingLeft=6;fontStyle=5;overflow=hidden;html=1;whiteSpace=wrap;horizontal=1;" parent="NHdadTuBNZMEaG2oG-7Y-653" vertex="1">
          <mxGeometry x="50" width="310" height="30" as="geometry">
            <mxRectangle width="310" height="30" as="alternateBounds" />
          </mxGeometry>
        </mxCell>
        <mxCell id="NHdadTuBNZMEaG2oG-7Y-656" value="" style="shape=tableRow;horizontal=1;startSize=0;swimlaneHead=0;swimlaneBody=0;fillColor=none;collapsible=0;dropTarget=0;points=[[0,0.5],[1,0.5]];portConstraint=eastwest;top=0;left=0;right=0;bottom=1;html=1;" parent="NHdadTuBNZMEaG2oG-7Y-652" vertex="1">
          <mxGeometry y="60" width="360" height="30" as="geometry" />
        </mxCell>
        <mxCell id="NHdadTuBNZMEaG2oG-7Y-657" value="PK,FK2" style="shape=partialRectangle;connectable=0;fillColor=none;top=0;left=0;bottom=0;right=0;fontStyle=1;overflow=hidden;html=1;whiteSpace=wrap;horizontal=1;" parent="NHdadTuBNZMEaG2oG-7Y-656" vertex="1">
          <mxGeometry width="50" height="30" as="geometry">
            <mxRectangle width="50" height="30" as="alternateBounds" />
          </mxGeometry>
        </mxCell>
        <mxCell id="NHdadTuBNZMEaG2oG-7Y-658" value="tag_id INT" style="shape=partialRectangle;connectable=0;fillColor=none;top=0;left=0;bottom=0;right=0;align=left;spacingLeft=6;fontStyle=5;overflow=hidden;html=1;whiteSpace=wrap;horizontal=1;" parent="NHdadTuBNZMEaG2oG-7Y-656" vertex="1">
          <mxGeometry x="50" width="310" height="30" as="geometry">
            <mxRectangle width="310" height="30" as="alternateBounds" />
          </mxGeometry>
        </mxCell>
        <mxCell id="NHdadTuBNZMEaG2oG-7Y-541" value="m2m_model_tags" style="shape=table;startSize=30;container=1;collapsible=1;childLayout=tableLayout;fixedRows=1;rowLines=0;fontStyle=1;align=center;resizeLast=1;html=1;horizontal=1;" parent="1" vertex="1">
          <mxGeometry x="-1680" y="-1720" width="300" height="90" as="geometry" />
        </mxCell>
        <mxCell id="NHdadTuBNZMEaG2oG-7Y-542" value="" style="shape=tableRow;horizontal=1;startSize=0;swimlaneHead=0;swimlaneBody=0;fillColor=none;collapsible=0;dropTarget=0;points=[[0,0.5],[1,0.5]];portConstraint=eastwest;top=0;left=0;right=0;bottom=1;" parent="NHdadTuBNZMEaG2oG-7Y-541" vertex="1">
          <mxGeometry y="30" width="300" height="30" as="geometry" />
        </mxCell>
        <mxCell id="NHdadTuBNZMEaG2oG-7Y-543" value="&lt;div&gt;PK, FK&lt;/div&gt;" style="shape=partialRectangle;connectable=0;fillColor=none;top=0;left=0;bottom=0;right=0;fontStyle=1;overflow=hidden;whiteSpace=wrap;html=1;horizontal=1;" parent="NHdadTuBNZMEaG2oG-7Y-542" vertex="1">
          <mxGeometry width="70" height="30" as="geometry">
            <mxRectangle width="70" height="30" as="alternateBounds" />
          </mxGeometry>
        </mxCell>
        <mxCell id="NHdadTuBNZMEaG2oG-7Y-544" value="model_id INT UNSIGNED" style="shape=partialRectangle;connectable=0;fillColor=none;top=0;left=0;bottom=0;right=0;align=left;spacingLeft=6;fontStyle=5;overflow=hidden;whiteSpace=wrap;html=1;horizontal=1;" parent="NHdadTuBNZMEaG2oG-7Y-542" vertex="1">
          <mxGeometry x="70" width="230" height="30" as="geometry">
            <mxRectangle width="230" height="30" as="alternateBounds" />
          </mxGeometry>
        </mxCell>
        <mxCell id="NHdadTuBNZMEaG2oG-7Y-545" value="" style="shape=tableRow;horizontal=1;startSize=0;swimlaneHead=0;swimlaneBody=0;fillColor=none;collapsible=0;dropTarget=0;points=[[0,0.5],[1,0.5]];portConstraint=eastwest;top=0;left=0;right=0;bottom=1;" parent="NHdadTuBNZMEaG2oG-7Y-541" vertex="1">
          <mxGeometry y="60" width="300" height="30" as="geometry" />
        </mxCell>
        <mxCell id="NHdadTuBNZMEaG2oG-7Y-546" value="&lt;div&gt;PK, FK, IDX&lt;br&gt;&lt;/div&gt;" style="shape=partialRectangle;connectable=0;fillColor=none;top=0;left=0;bottom=0;right=0;fontStyle=1;overflow=hidden;whiteSpace=wrap;html=1;horizontal=1;" parent="NHdadTuBNZMEaG2oG-7Y-545" vertex="1">
          <mxGeometry width="70" height="30" as="geometry">
            <mxRectangle width="70" height="30" as="alternateBounds" />
          </mxGeometry>
        </mxCell>
        <mxCell id="NHdadTuBNZMEaG2oG-7Y-547" value="tag_id INT" style="shape=partialRectangle;connectable=0;fillColor=none;top=0;left=0;bottom=0;right=0;align=left;spacingLeft=6;fontStyle=5;overflow=hidden;whiteSpace=wrap;html=1;horizontal=1;" parent="NHdadTuBNZMEaG2oG-7Y-545" vertex="1">
          <mxGeometry x="70" width="230" height="30" as="geometry">
            <mxRectangle width="230" height="30" as="alternateBounds" />
          </mxGeometry>
        </mxCell>
        <mxCell id="NHdadTuBNZMEaG2oG-7Y-401" value="nations_types" style="shape=table;startSize=30;container=1;collapsible=1;childLayout=tableLayout;fixedRows=1;rowLines=0;fontStyle=1;align=center;resizeLast=1;html=1;horizontal=1;" parent="1" vertex="1">
          <mxGeometry x="-1640" y="-1080" width="360" height="120" as="geometry" />
        </mxCell>
        <mxCell id="NHdadTuBNZMEaG2oG-7Y-402" value="" style="shape=tableRow;horizontal=1;startSize=0;swimlaneHead=0;swimlaneBody=0;fillColor=none;collapsible=0;dropTarget=0;points=[[0,0.5],[1,0.5]];portConstraint=eastwest;top=0;left=0;right=0;bottom=1;" parent="NHdadTuBNZMEaG2oG-7Y-401" vertex="1">
          <mxGeometry y="30" width="360" height="30" as="geometry" />
        </mxCell>
        <mxCell id="NHdadTuBNZMEaG2oG-7Y-403" value="PK" style="shape=partialRectangle;connectable=0;fillColor=none;top=0;left=0;bottom=0;right=0;fontStyle=1;overflow=hidden;whiteSpace=wrap;html=1;horizontal=1;" parent="NHdadTuBNZMEaG2oG-7Y-402" vertex="1">
          <mxGeometry width="30" height="30" as="geometry">
            <mxRectangle width="30" height="30" as="alternateBounds" />
          </mxGeometry>
        </mxCell>
        <mxCell id="NHdadTuBNZMEaG2oG-7Y-404" value="nt_id INT AUTO_INCREMENT" style="shape=partialRectangle;connectable=0;fillColor=none;top=0;left=0;bottom=0;right=0;align=left;spacingLeft=6;fontStyle=5;overflow=hidden;whiteSpace=wrap;html=1;horizontal=1;" parent="NHdadTuBNZMEaG2oG-7Y-402" vertex="1">
          <mxGeometry x="30" width="330" height="30" as="geometry">
            <mxRectangle width="330" height="30" as="alternateBounds" />
          </mxGeometry>
        </mxCell>
        <mxCell id="NHdadTuBNZMEaG2oG-7Y-405" value="" style="shape=tableRow;horizontal=1;startSize=0;swimlaneHead=0;swimlaneBody=0;fillColor=none;collapsible=0;dropTarget=0;points=[[0,0.5],[1,0.5]];portConstraint=eastwest;top=0;left=0;right=0;bottom=0;" parent="NHdadTuBNZMEaG2oG-7Y-401" vertex="1">
          <mxGeometry y="60" width="360" height="30" as="geometry" />
        </mxCell>
        <mxCell id="NHdadTuBNZMEaG2oG-7Y-406" value="" style="shape=partialRectangle;connectable=0;fillColor=none;top=0;left=0;bottom=0;right=0;editable=1;overflow=hidden;whiteSpace=wrap;html=1;horizontal=1;" parent="NHdadTuBNZMEaG2oG-7Y-405" vertex="1">
          <mxGeometry width="30" height="30" as="geometry">
            <mxRectangle width="30" height="30" as="alternateBounds" />
          </mxGeometry>
        </mxCell>
        <mxCell id="NHdadTuBNZMEaG2oG-7Y-407" value="nt_name VARCHAR(50)" style="shape=partialRectangle;connectable=0;fillColor=none;top=0;left=0;bottom=0;right=0;align=left;spacingLeft=6;overflow=hidden;whiteSpace=wrap;html=1;horizontal=1;" parent="NHdadTuBNZMEaG2oG-7Y-405" vertex="1">
          <mxGeometry x="30" width="330" height="30" as="geometry">
            <mxRectangle width="330" height="30" as="alternateBounds" />
          </mxGeometry>
        </mxCell>
        <mxCell id="NHdadTuBNZMEaG2oG-7Y-408" value="" style="shape=tableRow;horizontal=1;startSize=0;swimlaneHead=0;swimlaneBody=0;fillColor=none;collapsible=0;dropTarget=0;points=[[0,0.5],[1,0.5]];portConstraint=eastwest;top=0;left=0;right=0;bottom=0;" parent="NHdadTuBNZMEaG2oG-7Y-401" vertex="1">
          <mxGeometry y="90" width="360" height="30" as="geometry" />
        </mxCell>
        <mxCell id="NHdadTuBNZMEaG2oG-7Y-409" value="" style="shape=partialRectangle;connectable=0;fillColor=none;top=0;left=0;bottom=0;right=0;editable=1;overflow=hidden;whiteSpace=wrap;html=1;horizontal=1;" parent="NHdadTuBNZMEaG2oG-7Y-408" vertex="1">
          <mxGeometry width="30" height="30" as="geometry">
            <mxRectangle width="30" height="30" as="alternateBounds" />
          </mxGeometry>
        </mxCell>
        <mxCell id="NHdadTuBNZMEaG2oG-7Y-410" value="nt_description VARCHAR(255) DEFAULT NULL" style="shape=partialRectangle;connectable=0;fillColor=none;top=0;left=0;bottom=0;right=0;align=left;spacingLeft=6;overflow=hidden;whiteSpace=wrap;html=1;horizontal=1;" parent="NHdadTuBNZMEaG2oG-7Y-408" vertex="1">
          <mxGeometry x="30" width="330" height="30" as="geometry">
            <mxRectangle width="330" height="30" as="alternateBounds" />
          </mxGeometry>
        </mxCell>
        <mxCell id="NHdadTuBNZMEaG2oG-7Y-411" value="" style="edgeStyle=entityRelationEdgeStyle;fontSize=12;html=1;endArrow=ERzeroToMany;startArrow=ERmandOne;rounded=1;exitX=1;exitY=0.5;exitDx=0;exitDy=0;curved=0;horizontal=1;" parent="1" source="NHdadTuBNZMEaG2oG-7Y-402" target="NHdadTuBNZMEaG2oG-7Y-617" edge="1">
          <mxGeometry width="100" height="100" relative="1" as="geometry">
            <mxPoint x="-1270" y="-1440" as="sourcePoint" />
            <mxPoint x="-1170" y="-1540" as="targetPoint" />
          </mxGeometry>
        </mxCell>
        <mxCell id="NHdadTuBNZMEaG2oG-7Y-588" value="manufacturers" style="shape=table;startSize=30;container=1;collapsible=1;childLayout=tableLayout;fixedRows=1;rowLines=0;fontStyle=1;align=center;resizeLast=1;html=1;horizontal=1;" parent="1" vertex="1">
          <mxGeometry x="-1640" y="-1300" width="360" height="150" as="geometry" />
        </mxCell>
        <mxCell id="NHdadTuBNZMEaG2oG-7Y-589" value="" style="shape=tableRow;horizontal=1;startSize=0;swimlaneHead=0;swimlaneBody=0;fillColor=none;collapsible=0;dropTarget=0;points=[[0,0.5],[1,0.5]];portConstraint=eastwest;top=0;left=0;right=0;bottom=1;" parent="NHdadTuBNZMEaG2oG-7Y-588" vertex="1">
          <mxGeometry y="30" width="360" height="30" as="geometry" />
        </mxCell>
        <mxCell id="NHdadTuBNZMEaG2oG-7Y-590" value="PK" style="shape=partialRectangle;connectable=0;fillColor=none;top=0;left=0;bottom=0;right=0;fontStyle=1;overflow=hidden;whiteSpace=wrap;html=1;horizontal=1;" parent="NHdadTuBNZMEaG2oG-7Y-589" vertex="1">
          <mxGeometry width="50" height="30" as="geometry">
            <mxRectangle width="50" height="30" as="alternateBounds" />
          </mxGeometry>
        </mxCell>
        <mxCell id="NHdadTuBNZMEaG2oG-7Y-591" value="mnf_id INT AUTO_INCREMENT" style="shape=partialRectangle;connectable=0;fillColor=none;top=0;left=0;bottom=0;right=0;align=left;spacingLeft=6;fontStyle=5;overflow=hidden;whiteSpace=wrap;html=1;horizontal=1;" parent="NHdadTuBNZMEaG2oG-7Y-589" vertex="1">
          <mxGeometry x="50" width="310" height="30" as="geometry">
            <mxRectangle width="310" height="30" as="alternateBounds" />
          </mxGeometry>
        </mxCell>
        <mxCell id="NHdadTuBNZMEaG2oG-7Y-592" value="" style="shape=tableRow;horizontal=1;startSize=0;swimlaneHead=0;swimlaneBody=0;fillColor=none;collapsible=0;dropTarget=0;points=[[0,0.5],[1,0.5]];portConstraint=eastwest;top=0;left=0;right=0;bottom=0;" parent="NHdadTuBNZMEaG2oG-7Y-588" vertex="1">
          <mxGeometry y="60" width="360" height="30" as="geometry" />
        </mxCell>
        <mxCell id="NHdadTuBNZMEaG2oG-7Y-593" value="" style="shape=partialRectangle;connectable=0;fillColor=none;top=0;left=0;bottom=0;right=0;editable=1;overflow=hidden;whiteSpace=wrap;html=1;horizontal=1;" parent="NHdadTuBNZMEaG2oG-7Y-592" vertex="1">
          <mxGeometry width="50" height="30" as="geometry">
            <mxRectangle width="50" height="30" as="alternateBounds" />
          </mxGeometry>
        </mxCell>
        <mxCell id="NHdadTuBNZMEaG2oG-7Y-594" value="mnf_name VARCHAR(255)" style="shape=partialRectangle;connectable=0;fillColor=none;top=0;left=0;bottom=0;right=0;align=left;spacingLeft=6;overflow=hidden;whiteSpace=wrap;html=1;horizontal=1;" parent="NHdadTuBNZMEaG2oG-7Y-592" vertex="1">
          <mxGeometry x="50" width="310" height="30" as="geometry">
            <mxRectangle width="310" height="30" as="alternateBounds" />
          </mxGeometry>
        </mxCell>
        <mxCell id="NHdadTuBNZMEaG2oG-7Y-595" value="" style="shape=tableRow;horizontal=1;startSize=0;swimlaneHead=0;swimlaneBody=0;fillColor=none;collapsible=0;dropTarget=0;points=[[0,0.5],[1,0.5]];portConstraint=eastwest;top=0;left=0;right=0;bottom=0;" parent="NHdadTuBNZMEaG2oG-7Y-588" vertex="1">
          <mxGeometry y="90" width="360" height="30" as="geometry" />
        </mxCell>
        <mxCell id="NHdadTuBNZMEaG2oG-7Y-596" value="&lt;b&gt;FK, IDX&lt;/b&gt;" style="shape=partialRectangle;connectable=0;fillColor=none;top=0;left=0;bottom=0;right=0;editable=1;overflow=hidden;whiteSpace=wrap;html=1;horizontal=1;" parent="NHdadTuBNZMEaG2oG-7Y-595" vertex="1">
          <mxGeometry width="50" height="30" as="geometry">
            <mxRectangle width="50" height="30" as="alternateBounds" />
          </mxGeometry>
        </mxCell>
        <mxCell id="NHdadTuBNZMEaG2oG-7Y-597" value="mnf_nation_id VARCHAR(2)" style="shape=partialRectangle;connectable=0;fillColor=none;top=0;left=0;bottom=0;right=0;align=left;spacingLeft=6;overflow=hidden;whiteSpace=wrap;html=1;horizontal=1;" parent="NHdadTuBNZMEaG2oG-7Y-595" vertex="1">
          <mxGeometry x="50" width="310" height="30" as="geometry">
            <mxRectangle width="310" height="30" as="alternateBounds" />
          </mxGeometry>
        </mxCell>
        <mxCell id="NHdadTuBNZMEaG2oG-7Y-598" value="" style="shape=tableRow;horizontal=1;startSize=0;swimlaneHead=0;swimlaneBody=0;fillColor=none;collapsible=0;dropTarget=0;points=[[0,0.5],[1,0.5]];portConstraint=eastwest;top=0;left=0;right=0;bottom=0;" parent="NHdadTuBNZMEaG2oG-7Y-588" vertex="1">
          <mxGeometry y="120" width="360" height="30" as="geometry" />
        </mxCell>
        <mxCell id="NHdadTuBNZMEaG2oG-7Y-599" value="" style="shape=partialRectangle;connectable=0;fillColor=none;top=0;left=0;bottom=0;right=0;editable=1;overflow=hidden;whiteSpace=wrap;html=1;horizontal=1;" parent="NHdadTuBNZMEaG2oG-7Y-598" vertex="1">
          <mxGeometry width="50" height="30" as="geometry">
            <mxRectangle width="50" height="30" as="alternateBounds" />
          </mxGeometry>
        </mxCell>
        <mxCell id="NHdadTuBNZMEaG2oG-7Y-600" value="mnf_website TEXT DEFAULT NULL" style="shape=partialRectangle;connectable=0;fillColor=none;top=0;left=0;bottom=0;right=0;align=left;spacingLeft=6;overflow=hidden;whiteSpace=wrap;html=1;horizontal=1;" parent="NHdadTuBNZMEaG2oG-7Y-598" vertex="1">
          <mxGeometry x="50" width="310" height="30" as="geometry">
            <mxRectangle width="310" height="30" as="alternateBounds" />
          </mxGeometry>
        </mxCell>
        <mxCell id="NHdadTuBNZMEaG2oG-7Y-601" value="" style="edgeStyle=entityRelationEdgeStyle;fontSize=12;html=1;endArrow=ERzeroToMany;startArrow=ERmandOne;rounded=1;curved=0;horizontal=1;exitX=0;exitY=0.5;exitDx=0;exitDy=0;" parent="1" source="NHdadTuBNZMEaG2oG-7Y-611" target="NHdadTuBNZMEaG2oG-7Y-595" edge="1">
          <mxGeometry width="100" height="100" relative="1" as="geometry">
            <mxPoint x="-45" y="-1075" as="sourcePoint" />
            <mxPoint x="155" y="-1015" as="targetPoint" />
          </mxGeometry>
        </mxCell>
        <mxCell id="NHdadTuBNZMEaG2oG-7Y-610" value="nations" style="shape=table;startSize=30;container=1;collapsible=1;childLayout=tableLayout;fixedRows=1;rowLines=0;fontStyle=1;align=center;resizeLast=1;html=1;horizontal=1;" parent="1" vertex="1">
          <mxGeometry x="-1200" y="-1240" width="360" height="120" as="geometry" />
        </mxCell>
        <mxCell id="NHdadTuBNZMEaG2oG-7Y-611" value="" style="shape=tableRow;horizontal=1;startSize=0;swimlaneHead=0;swimlaneBody=0;fillColor=none;collapsible=0;dropTarget=0;points=[[0,0.5],[1,0.5]];portConstraint=eastwest;top=0;left=0;right=0;bottom=1;" parent="NHdadTuBNZMEaG2oG-7Y-610" vertex="1">
          <mxGeometry y="30" width="360" height="30" as="geometry" />
        </mxCell>
        <mxCell id="NHdadTuBNZMEaG2oG-7Y-612" value="PK" style="shape=partialRectangle;connectable=0;fillColor=none;top=0;left=0;bottom=0;right=0;fontStyle=1;overflow=hidden;whiteSpace=wrap;html=1;horizontal=1;" parent="NHdadTuBNZMEaG2oG-7Y-611" vertex="1">
          <mxGeometry width="50" height="30" as="geometry">
            <mxRectangle width="50" height="30" as="alternateBounds" />
          </mxGeometry>
        </mxCell>
        <mxCell id="NHdadTuBNZMEaG2oG-7Y-613" value="ntn_ccTLD VARCHAR(2)" style="shape=partialRectangle;connectable=0;fillColor=none;top=0;left=0;bottom=0;right=0;align=left;spacingLeft=6;fontStyle=5;overflow=hidden;whiteSpace=wrap;html=1;horizontal=1;" parent="NHdadTuBNZMEaG2oG-7Y-611" vertex="1">
          <mxGeometry x="50" width="310" height="30" as="geometry">
            <mxRectangle width="310" height="30" as="alternateBounds" />
          </mxGeometry>
        </mxCell>
        <mxCell id="NHdadTuBNZMEaG2oG-7Y-614" value="" style="shape=tableRow;horizontal=1;startSize=0;swimlaneHead=0;swimlaneBody=0;fillColor=none;collapsible=0;dropTarget=0;points=[[0,0.5],[1,0.5]];portConstraint=eastwest;top=0;left=0;right=0;bottom=0;" parent="NHdadTuBNZMEaG2oG-7Y-610" vertex="1">
          <mxGeometry y="60" width="360" height="30" as="geometry" />
        </mxCell>
        <mxCell id="NHdadTuBNZMEaG2oG-7Y-615" value="" style="shape=partialRectangle;connectable=0;fillColor=none;top=0;left=0;bottom=0;right=0;editable=1;overflow=hidden;whiteSpace=wrap;html=1;horizontal=1;" parent="NHdadTuBNZMEaG2oG-7Y-614" vertex="1">
          <mxGeometry width="50" height="30" as="geometry">
            <mxRectangle width="50" height="30" as="alternateBounds" />
          </mxGeometry>
        </mxCell>
        <mxCell id="NHdadTuBNZMEaG2oG-7Y-616" value="ntn_name VARCHAR(255)" style="shape=partialRectangle;connectable=0;fillColor=none;top=0;left=0;bottom=0;right=0;align=left;spacingLeft=6;overflow=hidden;whiteSpace=wrap;html=1;horizontal=1;" parent="NHdadTuBNZMEaG2oG-7Y-614" vertex="1">
          <mxGeometry x="50" width="310" height="30" as="geometry">
            <mxRectangle width="310" height="30" as="alternateBounds" />
          </mxGeometry>
        </mxCell>
        <mxCell id="NHdadTuBNZMEaG2oG-7Y-617" value="" style="shape=tableRow;horizontal=1;startSize=0;swimlaneHead=0;swimlaneBody=0;fillColor=none;collapsible=0;dropTarget=0;points=[[0,0.5],[1,0.5]];portConstraint=eastwest;top=0;left=0;right=0;bottom=0;" parent="NHdadTuBNZMEaG2oG-7Y-610" vertex="1">
          <mxGeometry y="90" width="360" height="30" as="geometry" />
        </mxCell>
        <mxCell id="NHdadTuBNZMEaG2oG-7Y-618" value="&lt;b&gt;FK, IDX&lt;/b&gt;" style="shape=partialRectangle;connectable=0;fillColor=none;top=0;left=0;bottom=0;right=0;editable=1;overflow=hidden;whiteSpace=wrap;html=1;horizontal=1;" parent="NHdadTuBNZMEaG2oG-7Y-617" vertex="1">
          <mxGeometry width="50" height="30" as="geometry">
            <mxRectangle width="50" height="30" as="alternateBounds" />
          </mxGeometry>
        </mxCell>
        <mxCell id="NHdadTuBNZMEaG2oG-7Y-619" value="ntn_type_id INT" style="shape=partialRectangle;connectable=0;fillColor=none;top=0;left=0;bottom=0;right=0;align=left;spacingLeft=6;overflow=hidden;whiteSpace=wrap;html=1;horizontal=1;" parent="NHdadTuBNZMEaG2oG-7Y-617" vertex="1">
          <mxGeometry x="50" width="310" height="30" as="geometry">
            <mxRectangle width="310" height="30" as="alternateBounds" />
          </mxGeometry>
        </mxCell>
        <mxCell id="NHdadTuBNZMEaG2oG-7Y-622" value="notices" style="shape=table;startSize=30;container=1;collapsible=1;childLayout=tableLayout;fixedRows=1;rowLines=0;fontStyle=1;align=center;resizeLast=1;html=1;horizontal=1;" parent="1" vertex="1">
          <mxGeometry x="-2540" y="-1290" width="360" height="150" as="geometry" />
        </mxCell>
        <mxCell id="NHdadTuBNZMEaG2oG-7Y-623" value="" style="shape=tableRow;horizontal=1;startSize=0;swimlaneHead=0;swimlaneBody=0;fillColor=none;collapsible=0;dropTarget=0;points=[[0,0.5],[1,0.5]];portConstraint=eastwest;top=0;left=0;right=0;bottom=1;" parent="NHdadTuBNZMEaG2oG-7Y-622" vertex="1">
          <mxGeometry y="30" width="360" height="30" as="geometry" />
        </mxCell>
        <mxCell id="NHdadTuBNZMEaG2oG-7Y-624" value="PK" style="shape=partialRectangle;connectable=0;fillColor=none;top=0;left=0;bottom=0;right=0;fontStyle=1;overflow=hidden;whiteSpace=wrap;html=1;horizontal=1;" parent="NHdadTuBNZMEaG2oG-7Y-623" vertex="1">
          <mxGeometry width="30" height="30" as="geometry">
            <mxRectangle width="30" height="30" as="alternateBounds" />
          </mxGeometry>
        </mxCell>
        <mxCell id="NHdadTuBNZMEaG2oG-7Y-625" value="ntc_id BIGINT AUTO_INCREMENT" style="shape=partialRectangle;connectable=0;fillColor=none;top=0;left=0;bottom=0;right=0;align=left;spacingLeft=6;fontStyle=5;overflow=hidden;whiteSpace=wrap;html=1;horizontal=1;" parent="NHdadTuBNZMEaG2oG-7Y-623" vertex="1">
          <mxGeometry x="30" width="330" height="30" as="geometry">
            <mxRectangle width="330" height="30" as="alternateBounds" />
          </mxGeometry>
        </mxCell>
        <mxCell id="NHdadTuBNZMEaG2oG-7Y-626" value="" style="shape=tableRow;horizontal=1;startSize=0;swimlaneHead=0;swimlaneBody=0;fillColor=none;collapsible=0;dropTarget=0;points=[[0,0.5],[1,0.5]];portConstraint=eastwest;top=0;left=0;right=0;bottom=0;" parent="NHdadTuBNZMEaG2oG-7Y-622" vertex="1">
          <mxGeometry y="60" width="360" height="30" as="geometry" />
        </mxCell>
        <mxCell id="NHdadTuBNZMEaG2oG-7Y-627" value="" style="shape=partialRectangle;connectable=0;fillColor=none;top=0;left=0;bottom=0;right=0;editable=1;overflow=hidden;whiteSpace=wrap;html=1;horizontal=1;" parent="NHdadTuBNZMEaG2oG-7Y-626" vertex="1">
          <mxGeometry width="30" height="30" as="geometry">
            <mxRectangle width="30" height="30" as="alternateBounds" />
          </mxGeometry>
        </mxCell>
        <mxCell id="NHdadTuBNZMEaG2oG-7Y-628" value="ntc_title VARCHAR(50)" style="shape=partialRectangle;connectable=0;fillColor=none;top=0;left=0;bottom=0;right=0;align=left;spacingLeft=6;overflow=hidden;whiteSpace=wrap;html=1;horizontal=1;" parent="NHdadTuBNZMEaG2oG-7Y-626" vertex="1">
          <mxGeometry x="30" width="330" height="30" as="geometry">
            <mxRectangle width="330" height="30" as="alternateBounds" />
          </mxGeometry>
        </mxCell>
        <mxCell id="NHdadTuBNZMEaG2oG-7Y-629" value="" style="shape=tableRow;horizontal=1;startSize=0;swimlaneHead=0;swimlaneBody=0;fillColor=none;collapsible=0;dropTarget=0;points=[[0,0.5],[1,0.5]];portConstraint=eastwest;top=0;left=0;right=0;bottom=0;" parent="NHdadTuBNZMEaG2oG-7Y-622" vertex="1">
          <mxGeometry y="90" width="360" height="30" as="geometry" />
        </mxCell>
        <mxCell id="NHdadTuBNZMEaG2oG-7Y-630" value="" style="shape=partialRectangle;connectable=0;fillColor=none;top=0;left=0;bottom=0;right=0;editable=1;overflow=hidden;whiteSpace=wrap;html=1;horizontal=1;" parent="NHdadTuBNZMEaG2oG-7Y-629" vertex="1">
          <mxGeometry width="30" height="30" as="geometry">
            <mxRectangle width="30" height="30" as="alternateBounds" />
          </mxGeometry>
        </mxCell>
        <mxCell id="NHdadTuBNZMEaG2oG-7Y-631" value="ntc_article TEXT" style="shape=partialRectangle;connectable=0;fillColor=none;top=0;left=0;bottom=0;right=0;align=left;spacingLeft=6;overflow=hidden;whiteSpace=wrap;html=1;horizontal=1;" parent="NHdadTuBNZMEaG2oG-7Y-629" vertex="1">
          <mxGeometry x="30" width="330" height="30" as="geometry">
            <mxRectangle width="330" height="30" as="alternateBounds" />
          </mxGeometry>
        </mxCell>
        <mxCell id="NHdadTuBNZMEaG2oG-7Y-632" value="" style="shape=tableRow;horizontal=1;startSize=0;swimlaneHead=0;swimlaneBody=0;fillColor=none;collapsible=0;dropTarget=0;points=[[0,0.5],[1,0.5]];portConstraint=eastwest;top=0;left=0;right=0;bottom=0;" parent="NHdadTuBNZMEaG2oG-7Y-622" vertex="1">
          <mxGeometry y="120" width="360" height="30" as="geometry" />
        </mxCell>
        <mxCell id="NHdadTuBNZMEaG2oG-7Y-633" value="" style="shape=partialRectangle;connectable=0;fillColor=none;top=0;left=0;bottom=0;right=0;editable=1;overflow=hidden;whiteSpace=wrap;html=1;horizontal=1;" parent="NHdadTuBNZMEaG2oG-7Y-632" vertex="1">
          <mxGeometry width="30" height="30" as="geometry">
            <mxRectangle width="30" height="30" as="alternateBounds" />
          </mxGeometry>
        </mxCell>
        <mxCell id="NHdadTuBNZMEaG2oG-7Y-634" value="created_at DATETIME" style="shape=partialRectangle;connectable=0;fillColor=none;top=0;left=0;bottom=0;right=0;align=left;spacingLeft=6;overflow=hidden;whiteSpace=wrap;html=1;horizontal=1;" parent="NHdadTuBNZMEaG2oG-7Y-632" vertex="1">
          <mxGeometry x="30" width="330" height="30" as="geometry">
            <mxRectangle width="330" height="30" as="alternateBounds" />
          </mxGeometry>
        </mxCell>
        <mxCell id="NHdadTuBNZMEaG2oG-7Y-641" value="m2m_user_notices" style="shape=table;startSize=30;container=1;collapsible=1;childLayout=tableLayout;fixedRows=1;rowLines=0;fontStyle=1;align=center;resizeLast=1;html=1;whiteSpace=wrap;horizontal=1;" parent="1" vertex="1">
          <mxGeometry x="-2960" y="-1380" width="360" height="90" as="geometry" />
        </mxCell>
        <mxCell id="NHdadTuBNZMEaG2oG-7Y-642" value="" style="shape=tableRow;horizontal=1;startSize=0;swimlaneHead=0;swimlaneBody=0;fillColor=none;collapsible=0;dropTarget=0;points=[[0,0.5],[1,0.5]];portConstraint=eastwest;top=0;left=0;right=0;bottom=0;html=1;" parent="NHdadTuBNZMEaG2oG-7Y-641" vertex="1">
          <mxGeometry y="30" width="360" height="30" as="geometry" />
        </mxCell>
        <mxCell id="NHdadTuBNZMEaG2oG-7Y-643" value="PK,FK1" style="shape=partialRectangle;connectable=0;fillColor=none;top=0;left=0;bottom=0;right=0;fontStyle=1;overflow=hidden;html=1;whiteSpace=wrap;horizontal=1;" parent="NHdadTuBNZMEaG2oG-7Y-642" vertex="1">
          <mxGeometry width="60" height="30" as="geometry">
            <mxRectangle width="60" height="30" as="alternateBounds" />
          </mxGeometry>
        </mxCell>
        <mxCell id="NHdadTuBNZMEaG2oG-7Y-644" value="user_id INT UNSIGNED" style="shape=partialRectangle;connectable=0;fillColor=none;top=0;left=0;bottom=0;right=0;align=left;spacingLeft=6;fontStyle=5;overflow=hidden;html=1;whiteSpace=wrap;horizontal=1;" parent="NHdadTuBNZMEaG2oG-7Y-642" vertex="1">
          <mxGeometry x="60" width="300" height="30" as="geometry">
            <mxRectangle width="300" height="30" as="alternateBounds" />
          </mxGeometry>
        </mxCell>
        <mxCell id="NHdadTuBNZMEaG2oG-7Y-645" value="" style="shape=tableRow;horizontal=1;startSize=0;swimlaneHead=0;swimlaneBody=0;fillColor=none;collapsible=0;dropTarget=0;points=[[0,0.5],[1,0.5]];portConstraint=eastwest;top=0;left=0;right=0;bottom=1;html=1;" parent="NHdadTuBNZMEaG2oG-7Y-641" vertex="1">
          <mxGeometry y="60" width="360" height="30" as="geometry" />
        </mxCell>
        <mxCell id="NHdadTuBNZMEaG2oG-7Y-646" value="PK,FK2" style="shape=partialRectangle;connectable=0;fillColor=none;top=0;left=0;bottom=0;right=0;fontStyle=1;overflow=hidden;html=1;whiteSpace=wrap;horizontal=1;" parent="NHdadTuBNZMEaG2oG-7Y-645" vertex="1">
          <mxGeometry width="60" height="30" as="geometry">
            <mxRectangle width="60" height="30" as="alternateBounds" />
          </mxGeometry>
        </mxCell>
        <mxCell id="NHdadTuBNZMEaG2oG-7Y-647" value="notice_id BIGINT" style="shape=partialRectangle;connectable=0;fillColor=none;top=0;left=0;bottom=0;right=0;align=left;spacingLeft=6;fontStyle=5;overflow=hidden;html=1;whiteSpace=wrap;horizontal=1;" parent="NHdadTuBNZMEaG2oG-7Y-645" vertex="1">
          <mxGeometry x="60" width="300" height="30" as="geometry">
            <mxRectangle width="300" height="30" as="alternateBounds" />
          </mxGeometry>
        </mxCell>
        <mxCell id="NHdadTuBNZMEaG2oG-7Y-648" value="" style="edgeStyle=entityRelationEdgeStyle;fontSize=12;html=1;endArrow=ERzeroToMany;startArrow=ERmandOne;rounded=1;exitX=0;exitY=0.5;exitDx=0;exitDy=0;curved=0;horizontal=1;" parent="1" source="NHdadTuBNZMEaG2oG-7Y-623" target="NHdadTuBNZMEaG2oG-7Y-645" edge="1">
          <mxGeometry width="100" height="100" relative="1" as="geometry">
            <mxPoint x="-2780" y="-940" as="sourcePoint" />
            <mxPoint x="-2680" y="-1040" as="targetPoint" />
          </mxGeometry>
        </mxCell>
        <mxCell id="NHdadTuBNZMEaG2oG-7Y-536" value="" style="edgeStyle=entityRelationEdgeStyle;fontSize=12;html=1;endArrow=ERzeroToMany;startArrow=ERmandOne;rounded=1;exitX=0;exitY=0.5;exitDx=0;exitDy=0;dashed=1;curved=0;horizontal=1;entryX=1;entryY=0.5;entryDx=0;entryDy=0;" parent="1" source="NHdadTuBNZMEaG2oG-7Y-552" target="NHdadTuBNZMEaG2oG-7Y-518" edge="1">
          <mxGeometry width="100" height="100" relative="1" as="geometry">
            <mxPoint x="-600" y="-1680" as="sourcePoint" />
            <mxPoint x="-480" y="-1680" as="targetPoint" />
            <Array as="points" />
          </mxGeometry>
        </mxCell>
        <mxCell id="NHdadTuBNZMEaG2oG-7Y-570" value="" style="edgeStyle=entityRelationEdgeStyle;fontSize=12;html=1;endArrow=ERzeroToMany;startArrow=ERmandOne;rounded=1;exitX=0;exitY=0.5;exitDx=0;exitDy=0;entryX=1;entryY=0.5;entryDx=0;entryDy=0;curved=0;horizontal=1;" parent="1" source="NHdadTuBNZMEaG2oG-7Y-549" target="NHdadTuBNZMEaG2oG-7Y-577" edge="1">
          <mxGeometry width="100" height="100" relative="1" as="geometry">
            <mxPoint x="-131" y="-1554" as="sourcePoint" />
            <mxPoint x="-211" y="-1889" as="targetPoint" />
            <Array as="points">
              <mxPoint x="-222" y="-1819" />
              <mxPoint x="-161" y="-1659" />
              <mxPoint x="-171" y="-1669" />
              <mxPoint x="-221" y="-1889" />
            </Array>
          </mxGeometry>
        </mxCell>
      </root>
    </mxGraphModel>
  </diagram>
</mxfile>
